<?xml version="1.0" standalone="no"?>
<!DOCTYPE svg PUBLIC "-//W3C//DTD SVG 20010904//EN"
 "http://www.w3.org/TR/2001/REC-SVG-20010904/DTD/svg10.dtd">
<svg version="1.0" xmlns="http://www.w3.org/2000/svg" viewBox="0 0 375.000000 600.000000"
 preserveAspectRatio="xMidYMid meet">

<g transform="translate(0.000000,600.000000) scale(0.100000,-0.100000)">
<path d="M1665 5970 c-133 -14 -287 -47 -352 -75 -74 -33 -358 -222 -426 -285
-64 -59 -97 -117 -131 -235 -15 -49 -40 -133 -56 -185 -38 -122 -50 -240 -50
-495 0 -220 11 -364 37 -460 27 -105 31 -145 36 -355 l5 -205 -60 -44 c-127
-93 -189 -202 -168 -295 11 -48 13 -50 42 -36 64 33 198 115 198 122 0 15 -26
8 -63 -18 -21 -14 -41 -24 -43 -21 -3 3 8 13 25 23 35 21 43 41 9 23 -63 -34
-96 -62 -92 -77 3 -10 -1 -7 -7 5 -10 18 -7 30 16 70 15 26 45 65 65 85 21 20
36 39 33 42 -3 2 5 10 17 16 19 10 21 10 11 -8 -5 -10 -8 -33 -6 -49 3 -25 0
-32 -17 -36 -11 -3 -17 -10 -13 -17 5 -8 11 -7 23 2 15 11 15 11 5 -3 -15 -18
-8 -30 13 -22 11 4 14 28 14 104 0 64 4 99 11 99 7 0 9 -32 7 -95 -2 -52 0
-95 4 -95 11 0 20 83 16 149 -3 61 3 77 17 44 12 -27 15 -115 6 -127 -13 -15
-17 -68 -7 -85 6 -10 4 -12 -11 -7 -39 12 -46 -34 -39 -261 3 -115 8 -287 11
-383 3 -96 8 -256 13 -355 8 -200 6 -402 -4 -425 -7 -14 -9 -20 -13 -37 -2 -5
-6 1 -11 12 -7 17 -11 14 -29 -26 -11 -25 -27 -88 -36 -140 -22 -133 -31 -490
-16 -674 l12 -150 56 -115 c31 -63 59 -108 61 -101 2 7 -3 29 -12 49 -27 63
-39 97 -38 105 1 4 -2 7 -8 7 -12 0 -37 89 -45 165 -5 54 -5 58 7 35 8 -14 25
-54 38 -90 13 -36 26 -69 30 -75 13 -18 130 -363 130 -382 -1 -25 -36 64 -64
162 -26 87 -64 181 -71 173 -3 -2 4 -24 16 -47 11 -23 26 -78 34 -121 8 -43
28 -113 46 -156 18 -43 32 -83 32 -91 0 -7 4 -13 9 -13 5 0 7 -4 4 -9 -8 -13
4 -42 15 -35 5 3 7 -1 4 -8 -8 -21 66 -137 127 -198 65 -65 157 -117 275 -154
112 -35 358 -70 451 -64 45 3 68 2 60 -4 -16 -11 276 -2 393 12 119 15 279 53
382 90 138 51 220 136 319 335 25 50 62 133 81 185 20 52 52 124 71 160 67
126 69 141 74 586 4 461 -2 529 -62 649 -19 38 -38 87 -42 108 -6 35 10 835
22 1113 l6 131 56 -23 c32 -12 80 -27 109 -32 50 -9 51 -8 56 16 7 37 -16 115
-46 161 -26 40 -112 115 -152 133 -19 9 -20 17 -17 211 2 133 7 221 17 257 38
147 56 468 43 760 -9 212 -20 279 -80 474 -64 210 -87 241 -270 368 -259 179
-334 215 -517 243 -117 19 -472 27 -596 15z m382 -20 c199 -12 324 -34 395
-69 53 -27 242 -165 268 -196 7 -8 -39 11 -101 43 -63 31 -134 64 -159 71 -25
8 -52 21 -61 28 -45 38 -327 68 -564 60 -209 -7 -413 -39 -430 -67 -4 -7 2 -7
17 -1 44 18 183 41 320 51 156 12 339 6 482 -15 144 -22 171 -30 186 -62 31
-68 80 -218 76 -230 -3 -8 -1 -11 4 -8 6 4 8 -7 5 -27 -5 -30 -5 -31 5 -9 8
20 4 43 -21 120 -17 53 -38 109 -46 124 -8 16 -13 31 -10 33 12 12 337 -145
337 -163 0 -8 -12 -13 -29 -13 -28 0 -28 -1 -23 -45 3 -28 0 -50 -8 -60 -21
-26 -6 -26 22 -1 14 14 36 23 51 23 14 -1 24 -4 21 -6 -7 -8 67 -41 78 -35 6
4 8 3 5 -3 -4 -6 0 -16 8 -23 8 -7 15 -17 15 -23 0 -5 -8 -3 -17 5 -34 28 -48
31 -24 4 19 -20 22 -29 13 -38 -8 -8 -12 -9 -12 -1 0 6 -20 19 -45 30 -51 21
-71 48 -29 40 14 -2 22 -1 17 4 -5 5 -23 11 -40 15 l-32 6 21 -88 c11 -49 21
-99 20 -111 0 -13 5 -20 13 -17 7 3 15 -2 18 -10 9 -22 71 -15 75 8 2 9 8 13
14 10 7 -5 8 -2 3 6 -11 18 -7 102 6 114 5 6 9 -16 9 -60 0 -39 4 -74 9 -80 5
-5 11 -18 14 -29 4 -17 5 -17 6 4 1 17 5 22 17 17 14 -5 16 -1 10 32 -3 22
-12 52 -20 67 -11 20 -12 34 -5 47 5 10 7 19 4 19 -3 1 -9 2 -14 3 -13 1 -51
43 -45 49 12 11 -40 75 -78 97 -23 13 -37 25 -30 28 7 2 25 -4 40 -13 22 -14
21 -12 -6 12 -18 15 -32 36 -32 46 0 17 1 17 31 0 17 -10 36 -24 42 -32 10
-12 9 -13 -2 -6 -10 5 -12 4 -7 -4 4 -6 12 -8 18 -5 10 7 54 -37 94 -92 20
-29 58 -114 52 -119 -2 -1 -12 7 -23 18 -12 11 -14 17 -5 13 13 -6 12 -5 0 6
-9 7 -21 27 -28 43 -12 29 -62 84 -92 100 -8 4 3 -10 25 -31 22 -21 38 -39 36
-39 -2 0 18 -45 45 -100 42 -86 49 -109 49 -161 0 -45 -5 -67 -17 -81 -38 -42
-9 -148 55 -209 56 -52 70 -106 71 -259 0 -170 -39 -274 -98 -259 -14 3 -27 1
-31 -6 -15 -24 -25 -235 -24 -520 0 -162 0 -322 0 -355 0 -33 -2 -105 -5 -160
-3 -55 -8 -212 -11 -350 -9 -386 -33 -802 -60 -1045 -20 -171 -22 -160 20
-153 31 5 39 1 69 -30 80 -85 131 -284 124 -482 -4 -110 -8 -130 -47 -240 -72
-202 -147 -435 -172 -531 l-23 -92 -26 18 c-14 10 -36 21 -50 24 -14 4 -4 -5
22 -18 l46 -26 -23 -48 c-29 -60 -124 -155 -200 -201 -76 -46 -190 -85 -327
-113 -103 -21 -140 -23 -408 -23 -310 0 -387 8 -539 54 -35 11 -76 18 -91 15
-49 -10 -182 79 -250 167 -27 35 -21 31 31 -21 68 -68 179 -140 214 -140 11 1
-6 13 -40 29 -82 38 -157 100 -212 174 -56 76 -76 120 -99 217 -20 85 -78 265
-153 481 -60 171 -74 260 -60 394 18 172 81 340 140 371 74 38 93 -18 144
-421 43 -337 81 -535 122 -636 42 -107 48 -5 24 466 -12 220 -25 605 -31 855
-16 713 -26 828 -111 1280 -68 363 -76 459 -46 543 8 21 23 44 34 52 72 51
415 229 536 279 l39 16 -7 -33 c-4 -17 -9 -40 -12 -51 -4 -16 -1 -18 21 -12
68 17 230 39 316 43 90 5 128 1 315 -33 178 -33 388 -117 544 -218 l71 -46 0
-75 c0 -80 -23 -202 -72 -380 -33 -118 -51 -163 -72 -171 -7 -3 -56 2 -107 11
-124 22 -330 45 -401 45 -52 0 -58 2 -58 21 0 11 -7 45 -16 74 -16 57 -28 65
-103 67 -22 1 -32 7 -37 22 -15 47 -70 51 -87 6 -10 -26 -16 -30 -49 -30 -59
0 -84 -14 -92 -51 -3 -18 -11 -49 -16 -69 l-10 -36 -152 -13 c-84 -7 -156 -15
-160 -18 -5 -2 -8 -13 -8 -24 0 -10 -3 -19 -6 -19 -4 0 -63 -12 -132 -26 -121
-25 -125 -25 -143 -7 -19 18 -65 188 -109 396 -13 59 -25 106 -27 103 -6 -5
48 -277 84 -426 14 -58 25 -114 25 -125 -1 -11 8 -69 19 -130 12 -60 21 -120
21 -132 0 -13 4 -23 9 -23 5 0 9 -5 9 -11 0 -5 -6 -7 -12 -3 -9 5 -9 3 1 -9 9
-11 14 -51 16 -114 2 -54 4 -98 5 -98 1 0 4 -17 5 -37 2 -21 0 -38 -6 -38 -5
0 -9 -4 -9 -10 0 -5 7 -10 15 -10 8 0 15 -7 15 -15 0 -9 -6 -12 -15 -9 -8 4
-15 2 -15 -4 0 -6 4 -12 9 -14 12 -4 26 -137 22 -198 -1 -13 -2 -13 -11 0 -7
10 -9 -3 -8 -45 l1 -60 7 45 7 45 3 -50 c2 -27 5 -66 6 -85 2 -19 4 -97 5
-172 1 -76 5 -138 10 -138 5 0 9 64 9 142 0 135 7 179 15 87 15 -204 19 -233
26 -209 11 38 11 158 -1 140 -5 -9 -7 15 -4 65 3 52 1 73 -5 60 -5 -13 -7 20
-5 90 3 68 1 102 -4 90 -6 -13 -7 9 -4 57 2 42 1 85 -3 95 -4 10 -7 36 -6 58
2 47 -26 546 -35 623 l-6 52 28 0 c16 0 63 6 104 14 41 8 75 15 75 15 0 0 14
5 30 11 17 6 42 12 58 12 15 1 27 7 27 13 0 19 16 22 129 30 112 8 114 9 126
82 9 58 23 71 80 82 40 8 52 7 58 -5 4 -8 18 -14 31 -14 17 0 28 -10 41 -40
15 -33 23 -40 47 -40 23 0 32 6 42 30 7 17 16 27 20 23 4 -4 4 0 0 10 -3 9 -1
17 4 17 6 0 16 -24 22 -53 18 -77 26 -85 97 -89 34 -1 59 -6 56 -11 -2 -4 -43
-5 -91 -2 -134 8 -333 6 -481 -6 -73 -6 -139 -8 -147 -5 -7 3 -16 0 -20 -6 -5
-8 20 -9 92 -3 114 10 674 13 674 4 0 -3 38 -9 85 -13 47 -3 131 -16 187 -27
166 -35 182 -35 205 -5 11 14 24 22 28 18 4 -4 5 7 1 23 -4 19 -3 25 2 17 6
-9 11 2 16 35 9 66 113 533 120 541 15 15 11 -12 -94 -538 -32 -162 -63 -331
-69 -375 -18 -130 -30 -396 -36 -780 -3 -198 -10 -567 -16 -820 -12 -492 -11
-586 8 -592 14 -5 47 93 72 219 42 204 134 986 156 1328 25 396 44 928 45
1280 0 135 1 423 1 640 0 217 -2 465 -5 549 -7 161 -2 225 16 200 6 -9 6 9 2
51 -4 36 -8 75 -8 88 -1 18 -7 22 -31 21 -25 0 -27 -2 -10 -8 17 -7 16 -8 -9
-13 -18 -4 -44 3 -74 18 -72 36 -80 37 -46 5 21 -20 46 -32 78 -36 l46 -7 2
-52 c1 -28 3 -67 5 -86 8 -86 10 -1051 2 -1056 -5 -3 -9 -10 -9 -15 0 -6 4 -8
8 -5 5 3 9 -8 9 -24 0 -17 -4 -30 -9 -30 -4 0 -8 7 -8 16 0 20 -49 142 -65
163 -7 9 -33 41 -57 71 -24 30 -75 79 -113 107 -66 50 -93 61 -87 34 1 -7 -2
-10 -8 -6 -6 4 -34 9 -63 12 -29 3 -77 14 -107 25 -134 47 -267 76 -375 82
l-90 6 105 -15 c58 -9 150 -27 205 -42 107 -27 154 -47 98 -40 -18 2 -30 0
-27 -5 3 -4 17 -8 31 -8 40 0 139 -20 215 -42 37 -11 77 -18 87 -15 11 3 25
-1 31 -9 10 -11 1 -12 -47 -9 -32 1 -76 8 -98 14 -83 23 -332 73 -379 77 -52
4 -73 15 -62 33 4 6 22 5 54 -4 68 -19 92 -24 92 -19 0 7 -52 25 -98 34 -34 6
-46 4 -59 -8 -14 -14 -14 -17 5 -33 12 -9 19 -18 17 -20 -2 -3 13 -3 34 -1 21
2 67 -4 102 -13 35 -9 75 -19 89 -21 74 -12 96 -18 108 -33 8 -9 10 -10 6 -2
-6 11 -1 12 22 6 16 -4 47 -9 68 -12 22 -2 47 -8 55 -12 9 -4 34 -7 56 -7 30
1 43 -4 52 -19 7 -11 12 -14 13 -7 0 6 5 12 10 12 6 0 10 -8 8 -17 -2 -10 3
-17 10 -15 6 1 11 -3 10 -10 -2 -6 8 -17 22 -24 14 -7 25 -18 25 -24 0 -6 7
-15 15 -20 8 -5 12 -12 8 -15 -3 -4 -23 9 -45 27 -54 48 -143 111 -149 106 -2
-3 21 -22 52 -42 65 -44 179 -154 188 -184 4 -12 -3 -41 -18 -73 -14 -30 -27
-65 -29 -79 -3 -18 -5 -15 -6 12 0 20 3 39 8 42 11 7 -15 120 -30 125 -6 2
-19 11 -29 21 -10 10 -21 19 -26 21 -5 2 -36 20 -69 39 -40 23 -54 36 -42 38
20 4 21 7 6 34 -6 11 -27 26 -47 35 -33 14 -37 13 -49 -3 -7 -9 -10 -21 -7
-26 3 -5 -18 1 -48 12 -96 38 -202 68 -288 84 -47 8 -126 22 -176 31 -106 20
-186 16 -339 -13 -60 -12 -113 -22 -117 -22 -4 0 -6 15 -5 34 2 33 23 69 36
62 4 -3 40 6 81 20 81 26 129 36 173 35 16 -1 26 3 25 10 -5 21 131 46 227 43
41 -2 145 -22 190 -37 6 -2 24 -7 40 -11 17 -4 37 -10 45 -13 8 -4 17 -7 20
-8 3 -1 16 -6 30 -12 21 -10 52 -22 70 -28 32 -11 66 -28 71 -37 4 -7 9 -7 13
1 14 21 -171 99 -326 136 -147 35 -232 36 -343 3 -49 -14 -137 -39 -195 -54
-58 -15 -146 -45 -197 -67 -51 -21 -98 -35 -104 -31 -7 4 -9 3 -6 -3 8 -13
-20 -26 -35 -16 -6 3 -8 1 -5 -4 4 -6 -4 -10 -19 -10 -14 0 -31 -6 -37 -12
-16 -16 15 -15 33 2 12 10 12 9 2 -4 -13 -17 -56 -34 -46 -18 3 5 -2 9 -10 9
-9 0 -16 -6 -16 -14 0 -7 -13 -19 -30 -26 -26 -11 -92 -47 -215 -118 l-40 -24
35 32 c91 83 284 190 430 239 36 12 113 42 171 66 116 49 132 53 202 54 27 1
46 4 44 9 -3 4 16 8 41 9 72 4 77 23 6 23 -269 -2 -538 -67 -719 -174 -111
-66 -238 -187 -217 -208 8 -8 12 -8 12 -1 0 5 22 32 49 59 70 70 86 84 98 84
6 0 13 6 16 14 3 8 22 19 41 26 20 6 34 16 31 21 -6 8 11 13 43 12 6 -1 12 3
12 7 0 11 77 50 84 43 3 -4 6 -2 6 4 0 5 6 10 13 11 21 2 42 7 53 14 6 4 24
10 40 12 16 3 38 8 49 11 11 2 45 11 75 18 31 8 64 11 75 6 l20 -8 -20 -1
c-11 -2 -23 -2 -27 -1 -5 0 -8 -3 -8 -8 0 -12 -61 -36 -84 -32 -10 1 -15 -2
-12 -7 4 -6 -35 -23 -91 -41 -54 -17 -136 -49 -183 -71 -100 -49 -241 -141
-268 -174 -16 -21 -20 -22 -29 -8 -8 14 -14 8 -39 -33 -16 -28 -39 -79 -50
-113 -12 -35 -24 -60 -27 -55 -7 11 -4 29 12 68 7 16 10 40 8 53 -3 16 -1 22
9 18 7 -3 16 0 20 6 4 7 3 8 -5 4 -6 -4 -14 0 -17 8 -10 26 -22 18 -27 -16 -9
-75 -6 795 3 958 17 288 9 256 74 275 65 20 65 8 1 -20 -25 -11 -45 -25 -45
-31 0 -15 34 -4 80 24 19 11 39 20 43 18 5 -1 6 2 3 6 -3 5 3 17 13 26 14 12
21 14 26 6 8 -13 -44 -72 -57 -64 -4 3 -8 3 -8 0 0 -3 10 -10 21 -17 17 -9 20
-8 17 2 -2 7 7 25 21 39 25 24 52 73 84 150 24 56 30 133 16 195 -12 56 -12
58 12 76 21 16 22 17 4 14 -11 -2 -23 -4 -28 -4 -4 -1 -6 -6 -5 -12 2 -6 -20
-12 -53 -13 -30 -2 -66 -9 -80 -16 -38 -19 -79 -62 -72 -74 3 -6 3 -8 -1 -4
-14 12 -93 -89 -118 -153 -38 -93 -45 -152 -22 -187 15 -23 15 -25 1 -13 -15
12 -17 10 -18 -15 0 -16 -2 -36 -4 -44 -2 -8 -7 -26 -10 -40 -5 -20 -4 -22 4
-10 9 12 10 8 5 -15 -7 -34 -64 -96 -64 -71 0 9 9 25 20 36 19 19 19 47 0 35
-5 -3 -11 -1 -15 5 -3 5 1 10 10 10 12 0 15 5 11 16 -3 9 -6 22 -6 30 0 8 -3
13 -7 13 -21 -3 -21 5 -2 54 11 28 34 89 50 135 34 94 75 166 115 201 21 18
24 25 13 32 -10 7 -7 8 10 7 17 -2 24 3 27 17 1 10 12 26 22 35 11 8 53 42 93
76 106 87 208 159 265 187 85 42 298 82 484 90 36 2 74 4 85 5 11 1 88 -3 172
-8z m-947 -391 c0 -42 -2 -49 -13 -40 -8 6 -13 27 -11 48 2 45 2 43 14 43 6 0
10 -23 10 -51z m-61 -9 c-2 -35 -6 -50 -16 -50 -23 0 -97 -37 -114 -57 -15
-17 -19 -66 -7 -79 4 -3 3 -18 -2 -33 -11 -40 5 -61 45 -61 19 0 35 5 35 10 0
6 6 10 14 10 9 0 21 34 36 100 13 55 28 100 32 100 5 0 6 -17 2 -37 -13 -76
-32 -164 -35 -167 -2 -1 -17 -12 -33 -24 -16 -12 -41 -22 -57 -22 -15 0 -31
-4 -34 -10 -3 -5 -17 -10 -31 -10 -21 0 -24 -5 -24 -35 0 -27 -4 -35 -17 -35
-11 0 -14 -3 -7 -8 7 -4 9 -23 5 -52 -4 -25 -3 -67 1 -95 5 -27 6 -60 3 -72
-14 -58 -4 -1277 16 -1893 16 -526 43 -925 75 -1094 16 -90 17 -116 6 -116
-18 0 -31 80 -46 275 -43 540 -54 801 -66 1600 -10 640 -14 740 -33 752 -6 4
-25 7 -42 7 -24 1 -33 8 -48 37 -26 55 -39 181 -28 286 11 100 26 138 69 175
16 14 34 33 40 44 12 22 52 216 52 250 0 25 15 33 23 12 3 -8 6 -6 6 5 1 9 6
17 11 17 7 0 10 29 9 75 -1 41 -4 75 -6 75 -2 0 -12 -20 -23 -44 -10 -24 -23
-47 -29 -50 -6 -4 -11 -31 -11 -59 0 -70 -16 -93 -19 -26 -3 98 72 213 168
259 47 21 66 40 41 40 -5 0 -10 4 -10 10 0 5 8 7 18 3 9 -3 14 -3 10 2 -7 7 8
35 18 35 3 0 4 -22 3 -50z m1751 29 c0 -5 12 -15 28 -24 26 -15 26 -15 2 -9
-14 4 -34 8 -44 9 -11 1 -23 11 -27 22 -6 17 -4 19 17 15 13 -2 24 -8 24 -13z
m-1652 -79 c0 -56 -12 -111 -19 -90 -8 26 2 177 11 155 5 -11 8 -40 8 -65z
m-292 2 c-17 -16 -18 -16 -5 5 7 12 15 20 18 17 3 -2 -3 -12 -13 -22z m2001
12 c-3 -3 -12 -4 -19 -1 -8 3 -5 6 6 6 11 1 17 -2 13 -5z m-1819 -46 c-3 -7
-15 -15 -28 -18 -13 -3 -26 -12 -28 -19 -3 -10 2 -12 22 -7 25 6 27 5 21 -16
-4 -13 -13 -36 -21 -51 -7 -15 -10 -36 -7 -45 3 -9 3 -14 -2 -10 -4 4 -13 3
-20 -2 -8 -6 -18 -5 -31 5 -11 8 -14 14 -6 15 13 0 24 22 36 73 5 20 3 27 -9
27 -8 0 -15 5 -15 10 0 6 3 9 8 8 4 -2 17 7 30 20 23 23 56 30 50 10z m-101
-50 c-3 -8 -6 -5 -6 6 -1 11 2 17 5 13 3 -3 4 -12 1 -19z m175 5 c3 -10 3 -31
1 -48 -2 -16 -4 -41 -6 -55 -1 -14 -8 -36 -15 -49 -13 -22 -15 -22 -30 -7 -11
11 -13 19 -7 24 18 12 37 91 30 123 -5 22 -3 29 8 29 8 0 17 -8 19 -17z m1704
-8 c47 -28 71 -59 54 -70 -6 -4 -17 -2 -24 4 -7 6 -17 7 -21 3 -5 -4 -5 -2 -1
5 4 7 -4 19 -19 29 -26 17 -52 54 -39 54 4 0 27 -11 50 -25z m-1856 -24 c0
-13 -29 -35 -37 -28 -7 8 15 37 28 37 5 0 9 -4 9 -9z m2070 -38 c0 -7 -5 -13
-11 -13 -6 0 -9 7 -5 15 3 8 1 15 -5 15 -6 0 -7 5 -3 11 7 12 24 -7 24 -28z
m-170 -32 c0 -16 -28 -20 -47 -6 -17 13 -16 14 15 15 17 0 32 -4 32 -9z m204
-70 c14 -41 24 -76 22 -78 -4 -5 -43 93 -52 132 -11 48 1 26 30 -54z m-129 49
c3 -5 1 -10 -4 -10 -6 0 -11 5 -11 10 0 6 2 10 4 10 3 0 8 -4 11 -10z m-2055
-4 c0 -3 -4 -8 -10 -11 -5 -3 -10 -1 -10 4 0 6 5 11 10 11 6 0 10 -2 10 -4z
m2176 -121 c3 -14 10 -25 16 -25 5 0 6 -4 3 -10 -3 -5 -2 -10 4 -10 10 0 16
-24 26 -108 l7 -52 -40 37 c-59 55 -76 111 -50 168 14 32 26 32 34 0z m44
-875 c-7 -52 -20 -135 -31 -185 -10 -49 -18 -99 -18 -110 1 -296 1 -303 -23
-319 -12 -9 -26 -16 -30 -16 -5 0 -8 40 -8 90 0 84 13 140 32 140 4 0 8 5 8
10 0 7 -6 7 -20 0 -22 -12 -23 -10 -14 14 3 9 11 13 18 10 6 -3 3 1 -6 8 -15
13 -16 35 -12 204 5 223 10 248 46 252 14 2 34 12 44 24 l19 20 3 -23 c2 -13
-1 -66 -8 -119z m-2335 120 c7 0 18 -14 24 -32 l11 -31 -22 19 c-13 10 -26 23
-29 28 -10 13 -39 -36 -40 -69 -2 -26 -2 -27 -6 -6 -7 36 17 103 35 96 7 -3
20 -5 27 -5z m2302 -6 c-3 -3 -12 -4 -19 -1 -8 3 -5 6 6 6 11 1 17 -2 13 -5z
m-2303 -76 c-4 -6 -3 -8 3 -5 6 4 11 -18 12 -61 1 -37 5 -68 9 -70 4 -1 6 -66
5 -143 -2 -96 1 -146 8 -156 10 -11 8 -12 -6 -7 -12 5 -16 4 -12 -4 4 -6 8
-52 8 -104 1 -51 6 -99 12 -105 7 -10 4 -13 -9 -13 -26 0 -49 16 -36 24 6 3 9
36 8 74 -2 37 0 78 4 92 4 14 4 35 -1 47 -7 18 -5 21 9 16 16 -6 16 -5 0 13
-13 15 -17 38 -16 106 0 47 -2 91 -6 96 -3 5 3 12 14 15 11 3 20 13 20 24 -1
16 -2 16 -13 3 -20 -25 -34 -21 -29 8 2 15 -2 41 -9 57 -7 17 -12 32 -12 35 1
3 3 23 4 45 2 22 8 43 13 47 14 9 29 -18 20 -34z m1831 -225 c19 -9 35 -20 35
-25 0 -11 -2 -10 -44 7 -20 8 -36 20 -36 25 0 13 3 13 45 -7z m-1605 -97 c0
-3 -4 -8 -10 -11 -5 -3 -10 -1 -10 4 0 6 5 11 10 11 6 0 10 -2 10 -4z m-94
-188 c-3 -13 6 -85 20 -162 14 -76 23 -144 21 -150 -2 -6 -7 4 -11 22 -4 18
-12 29 -17 26 -6 -4 -6 -10 0 -18 9 -10 57 -206 81 -331 5 -22 18 -89 31 -150
17 -85 22 -145 23 -267 0 -86 3 -152 7 -146 14 22 20 -72 26 -422 5 -326 4
-369 -11 -397 -13 -26 -16 -66 -16 -219 0 -103 2 -185 4 -183 2 2 6 89 8 192
1 104 6 191 11 194 4 2 7 -92 8 -209 1 -231 5 -391 14 -478 16 -164 16 -196 3
-175 -7 11 -13 22 -14 25 0 3 -3 12 -6 20 -7 19 -34 169 -49 270 -6 41 -15
102 -20 135 -12 80 -10 89 6 36 8 -25 12 -47 10 -51 -2 -3 0 -12 5 -20 7 -11
10 -7 15 13 4 15 3 33 -2 40 -20 25 -62 301 -92 612 -12 116 -23 227 -25 248
-2 20 -3 37 -2 37 2 0 31 -28 64 -62 34 -34 65 -59 68 -56 3 3 -26 37 -64 74
l-70 69 -6 80 c-14 179 -26 620 -25 942 0 189 -3 348 -7 354 -8 14 -7 84 2
111 8 26 17 22 10 -4z m2033 -365 c0 -194 -3 -293 -10 -293 -7 0 -9 71 -7 210
2 116 0 210 -3 210 -12 0 -14 -77 -14 -445 0 -196 -3 -346 -7 -333 -4 13 -6
-36 -5 -109 1 -72 -2 -129 -6 -126 -5 3 -7 -48 -5 -112 l3 -118 -79 -73 c-44
-41 -74 -74 -68 -74 6 0 41 28 78 62 l67 63 -7 -95 c-4 -52 -12 -100 -17 -106
-5 -7 -20 -131 -34 -276 -25 -276 -39 -380 -55 -423 -6 -15 -6 -25 0 -25 9 0
25 47 40 124 7 35 8 37 9 11 0 -16 -4 -50 -10 -75 -11 -48 -13 -55 -23 -140
-4 -30 -16 -111 -28 -180 -11 -69 -23 -140 -25 -157 -3 -18 -9 -31 -13 -28 -5
3 -6 -3 -3 -13 2 -10 -3 -34 -11 -53 -15 -32 -15 -15 -10 221 7 274 19 474 24
385 1 -27 2 -53 1 -57 0 -4 4 -20 10 -35 l12 -28 8 30 c6 20 5 32 -4 37 -7 4
-7 8 -2 8 16 0 7 314 -11 392 -14 58 -15 134 -12 540 2 270 8 480 13 488 6 8
11 24 11 35 4 44 25 183 35 232 8 36 16 50 25 46 9 -3 14 2 14 12 0 9 -4 13
-10 10 -14 -9 -13 -1 14 105 44 176 86 413 87 495 l0 40 14 -44 c11 -34 14
-117 14 -338z m-2 355 c-3 -8 -6 -5 -6 6 -1 11 2 17 5 13 3 -3 4 -12 1 -19z
m-2048 -195 c0 -49 -3 -80 -7 -71 -7 17 -4 158 4 158 2 0 4 -39 3 -87z m2171
41 c0 -10 -6 -14 -15 -11 -8 4 -17 2 -20 -4 -4 -5 -1 -8 6 -7 6 2 14 -3 17
-11 3 -8 0 -11 -7 -7 -7 5 -11 -6 -10 -36 l2 -43 7 35 c7 34 7 34 9 -12 0 -26
6 -50 12 -53 6 -4 9 -26 7 -48 -2 -31 1 -43 12 -45 13 -2 14 8 9 65 -4 38 -12
86 -17 108 -6 22 -9 41 -7 43 8 8 162 -127 187 -165 15 -21 29 -56 32 -78 l6
-40 -12 33 c-15 43 -188 219 -188 191 0 -6 8 -19 18 -28 23 -21 73 -88 94
-126 9 -16 22 -29 29 -27 9 2 9 -2 -2 -14 -12 -16 -12 -17 3 -12 10 4 19 1 22
-8 7 -19 8 -19 -109 23 l-104 38 -6 59 c-4 33 -11 53 -15 46 -5 -8 -10 -9 -14
-2 -3 6 -2 13 4 17 5 3 10 17 10 31 0 14 -4 22 -10 19 -5 -3 -10 -1 -10 4 0 6
4 11 9 11 5 0 7 9 4 20 -4 13 1 26 13 35 25 19 34 19 34 -1z m-2356 -76 c-16
-18 -60 -65 -97 -105 -60 -64 -67 -75 -68 -115 -2 -32 -3 -36 -6 -14 -10 67 5
97 94 183 82 80 137 116 77 51z m2083 -60 c-3 -7 -5 -2 -5 12 0 14 2 19 5 13
2 -7 2 -19 0 -25z m-869 -15 c-2 -10 -10 -18 -18 -18 -8 0 -16 8 -18 18 -2 12
3 17 18 17 15 0 20 -5 18 -17z m-961 -35 c-3 -8 -6 -5 -6 6 -1 11 2 17 5 13 3
-3 4 -12 1 -19z m1052 -29 c-10 -21 -24 -39 -30 -39 -9 0 -39 59 -39 77 0 5
20 7 45 5 l44 -4 -20 -39z m1034 -43 c11 3 17 2 14 -2 -3 -5 -8 -153 -11 -329
-4 -176 -8 -367 -11 -425 -3 -58 -6 -170 -7 -250 -2 -117 -5 -147 -17 -158
-14 -10 -14 -11 -1 -7 12 4 16 -6 18 -52 3 -77 11 -113 32 -143 43 -60 62
-149 66 -300 3 -110 1 -137 -7 -110 -5 19 -10 42 -11 50 -1 8 -4 17 -8 20 -3
3 -14 26 -24 53 -10 26 -23 53 -30 60 -6 6 -22 26 -34 44 -20 28 -26 31 -57
26 l-35 -6 0 44 1 44 19 -40 c17 -34 19 -36 13 -10 -9 41 -9 189 -1 315 4 58
10 152 13 210 2 58 7 141 9 185 8 136 17 410 21 640 2 121 5 225 6 230 1 6 6
-14 12 -43 9 -46 12 -52 30 -46z m-272 33 l-10 -24 0 26 c-1 14 2 29 6 33 12
12 14 -9 4 -35z m-1884 -56 c-3 -10 -5 -4 -5 12 0 17 2 24 5 18 2 -7 2 -21 0
-30z m-77 -97 c-2 -117 1 -214 17 -606 5 -102 8 -235 8 -297 0 -103 1 -110 18
-102 12 7 17 6 17 -3 -1 -16 -49 -52 -58 -43 -3 3 0 10 8 15 8 6 10 10 4 10
-10 0 -12 35 -19 325 -2 88 -6 219 -9 290 -4 72 -8 220 -11 331 -3 172 -1 201
11 201 13 0 15 -21 14 -121z m1944 97 c-3 -16 -8 -35 -11 -43 -3 -8 -8 -23
-10 -33 -5 -27 -24 -60 -30 -53 -3 3 4 34 17 68 12 35 24 69 26 76 7 24 14 11
8 -15z m-2174 -43 c0 -5 -5 -10 -11 -10 -5 0 -7 5 -4 10 3 6 8 10 11 10 2 0 4
-4 4 -10z m1705 -30 c-3 -5 -10 -10 -16 -10 -5 0 -9 5 -9 10 0 6 7 10 16 10 8
0 12 -4 9 -10z m119 -9 c2 -3 -19 -4 -46 -2 -28 2 -46 6 -40 10 13 8 80 2 86
-8z m-944 -3 c0 -6 -2 -9 -6 -6 -3 3 -21 2 -40 -2 -29 -7 -33 -6 -23 6 14 17
69 19 69 2z m1080 -12 c0 -11 -19 -15 -25 -6 -3 5 1 10 9 10 9 0 16 -2 16 -4z
m136 -23 c-10 -10 -76 -12 -70 -1 3 4 21 8 41 8 20 0 33 -3 29 -7z m-1521
-254 c8 -112 14 -215 14 -229 -2 -41 -18 84 -33 259 -13 148 -13 191 0 178 3
-2 11 -96 19 -208z m-74 170 c-9 -22 -10 -22 -10 -3 -1 11 2 24 6 27 12 12 14
0 4 -24z m1846 -221 c-1 -40 -3 -10 -3 67 0 77 1 110 3 73 2 -37 2 -100 0
-140z m-1830 120 c-3 -8 -6 -5 -6 6 -1 11 2 17 5 13 3 -3 4 -12 1 -19z m1830
-230 c-3 -7 -5 -2 -5 12 0 14 2 19 5 13 2 -7 2 -19 0 -25z m-1750 -225 c-3
-10 -5 -2 -5 17 0 19 2 27 5 18 2 -10 2 -26 0 -35z m10 -200 c-2 -16 -4 -3 -4
27 0 30 2 43 4 28 2 -16 2 -40 0 -55z m10 -135 c-3 -7 -5 -2 -5 12 0 14 2 19
5 13 2 -7 2 -19 0 -25z m-348 -120 c-1 -29 1 -68 5 -86 5 -20 3 -38 -4 -47 -8
-9 -8 -15 0 -20 6 -3 8 -11 5 -16 -4 -5 -4 -9 0 -9 3 0 10 10 15 23 9 22 9 22
9 -3 1 -15 5 -30 11 -36 5 -5 13 -30 16 -55 l6 -46 -48 -6 c-42 -5 -52 -3 -68
16 -14 16 -18 18 -13 5 4 -10 2 -18 -3 -18 -6 0 -10 -7 -10 -16 0 -9 5 -13 13
-8 6 3 0 -5 -15 -18 -16 -14 -28 -32 -28 -41 0 -9 -5 -19 -10 -22 -6 -4 -8
-10 -6 -13 2 -4 -2 -18 -10 -32 -15 -24 -15 -24 -9 15 4 22 8 54 11 72 2 17
11 43 18 58 8 15 12 33 9 40 -3 8 4 15 18 17 16 2 23 11 26 33 3 16 7 32 11
35 4 3 8 10 9 16 7 36 12 97 12 152 1 49 4 62 17 62 12 0 15 -11 13 -52z m-79
-234 c0 -2 -7 -4 -15 -4 -8 0 -15 4 -15 10 0 5 7 7 15 4 8 -4 15 -8 15 -10z
m1967 -176 c-3 -8 -6 -5 -6 6 -1 11 2 17 5 13 3 -3 4 -12 1 -19z m100 -105
c-3 -10 -5 -2 -5 17 0 19 2 27 5 18 2 -10 2 -26 0 -35z m-10 -65 c-3 -7 -5 -2
-5 12 0 14 2 19 5 13 2 -7 2 -19 0 -25z m300 -420 c-3 -8 -6 -5 -6 6 -1 11 2
17 5 13 3 -3 4 -12 1 -19z m3 -77 c0 -32 -5 -82 -10 -112 -11 -58 -60 -170
-85 -195 -8 -9 -15 -25 -16 -37 0 -12 -7 -38 -14 -57 l-13 -35 4 55 c3 40 1
48 -5 30 -5 -14 -9 -36 -10 -48 -1 -13 -7 -38 -15 -55 -26 -61 -78 -182 -84
-196 -4 -10 -1 -12 8 -6 8 5 4 -9 -10 -31 -13 -21 -36 -64 -50 -94 -38 -76
-119 -148 -174 -154 -11 -2 -32 -6 -46 -9 -14 -4 -7 2 15 12 75 36 138 86 172
135 18 26 33 51 33 55 0 4 -30 -23 -67 -59 -87 -84 -223 -163 -223 -129 0 7 3
10 6 6 10 -9 114 47 173 93 65 51 142 156 174 235 29 71 97 285 97 303 0 6 4
12 8 12 4 0 9 12 10 28 1 15 18 67 37 116 19 49 35 96 35 103 0 8 5 11 11 8 6
-4 9 -1 8 6 -4 22 12 79 22 79 5 0 9 -26 9 -59z m-149 -468 c-12 -20 -14 -14
-5 12 4 9 9 14 11 11 3 -2 0 -13 -6 -23z m-35 -90 c-8 -15 -15 -25 -16 -21 0
12 23 58 27 54 3 -2 -2 -17 -11 -33z m-1876 -268 c7 -9 8 -15 2 -15 -5 0 -12
7 -16 15 -3 8 -4 15 -2 15 2 0 9 -7 16 -15z m100 -82 c0 -8 -57 27 -71 43 -8
10 4 5 29 -11 23 -15 42 -29 42 -32z m96 -51 c-5 -4 -86 36 -86 43 0 3 20 -5
45 -17 24 -12 43 -23 41 -26z m46 6 c-6 -6 -15 -8 -19 -4 -4 4 -1 11 7 16 19
12 27 3 12 -12z m1226 -3 c-17 -14 -48 -24 -48 -15 0 5 7 10 16 10 8 0 12 4 9
10 -3 6 1 7 10 4 9 -4 15 -8 13 -9z m-1088 -29 c108 -24 279 -43 400 -45 58
-1 109 -6 113 -10 5 -5 -53 -7 -130 -5 -144 3 -319 25 -413 52 -30 8 -62 14
-72 13 -9 -1 -20 3 -24 10 -8 13 4 12 126 -15z m1024 4 c-27 -27 -380 -78
-400 -58 -5 6 50 14 161 24 33 3 96 14 140 24 98 22 112 23 99 10z m-405 -74
c-10 -8 -89 -13 -89 -5 0 5 21 9 47 9 25 0 44 -2 42 -4z"/>
<path d="M1706 5921 c-3 -4 6 -6 19 -3 14 2 25 6 25 8 0 8 -39 4 -44 -5z"/>
<path d="M1808 5923 c7 -3 16 -2 19 1 4 3 -2 6 -13 5 -11 0 -14 -3 -6 -6z"/>
<path d="M1976 5922 c-5 -8 95 -5 103 4 2 2 -19 4 -47 4 -28 0 -53 -4 -56 -8z"/>
<path d="M2100 5912 c0 -5 44 -14 98 -21 156 -20 172 -23 172 -32 0 -5 3 -8 8
-8 21 4 32 -2 26 -13 -5 -8 0 -7 11 2 10 8 16 10 12 4 -4 -7 0 -15 9 -18 25
-10 46 -7 39 5 -4 6 -13 8 -21 5 -8 -3 -13 0 -11 6 3 17 -40 36 -119 52 -89
18 -224 29 -224 18z"/>
<path d="M1330 5854 c-25 -14 -46 -30 -48 -35 -2 -5 -9 -9 -15 -9 -7 0 -41
-23 -77 -50 -36 -28 -95 -71 -132 -97 -38 -25 -68 -48 -68 -50 0 -3 30 12 68
33 89 50 239 124 251 124 5 0 13 5 17 11 5 9 -1 10 -20 5 -24 -6 -26 -5 -14 8
7 7 16 12 19 10 3 -1 13 6 23 17 11 14 25 19 38 16 15 -4 18 -3 10 5 -6 6 -8
17 -5 24 7 18 5 18 -47 -12z m-101 -98 c-2 -2 -15 -9 -29 -15 -24 -11 -24 -11
-6 3 16 13 49 24 35 12z"/>
<path d="M1847 5814 c-27 -36 -19 -86 16 -98 38 -14 81 3 85 33 5 32 -17 81
-37 82 -9 0 -23 2 -31 4 -8 1 -23 -8 -33 -21z m71 -26 c2 -11 -3 -15 -15 -13
-10 1 -17 8 -15 15 2 8 -3 10 -13 6 -10 -3 -14 -2 -10 5 10 16 49 6 53 -13z
m-32 -23 c4 -10 13 -13 25 -10 11 4 19 2 19 -4 0 -6 -18 -11 -40 -11 -33 0
-40 3 -40 20 0 24 28 27 36 5z"/>
<path d="M1343 5793 c4 -3 2 -12 -4 -19 -7 -8 -7 -14 1 -19 5 -3 10 -2 10 4 0
5 3 16 6 25 4 10 1 16 -7 16 -7 0 -9 -3 -6 -7z"/>
<path d="M1370 5795 c0 -7 30 -13 34 -7 3 4 -4 9 -15 9 -10 1 -19 0 -19 -2z"/>
<path d="M1370 5751 c-13 -25 -13 -31 1 -31 5 0 8 4 4 9 -3 5 2 17 11 25 8 9
11 16 5 16 -6 0 -15 -9 -21 -19z"/>
<path d="M1324 5731 c4 -5 1 -12 -4 -14 -6 -3 -5 -4 2 -3 15 3 23 26 8 26 -6
0 -9 -4 -6 -9z"/>
<path d="M1356 5693 c-6 -14 -5 -15 5 -6 7 7 10 15 7 18 -3 3 -9 -2 -12 -12z"/>
<path d="M1306 5692 c-4 -7 -4 -12 0 -12 3 0 -1 -11 -10 -25 -9 -14 -12 -25
-6 -25 6 0 15 12 21 27 11 29 8 55 -5 35z"/>
<path d="M1175 5679 c-4 -6 -5 -12 -2 -15 2 -3 7 2 10 11 7 17 1 20 -8 4z"/>
<path d="M1336 5667 c3 -10 9 -15 12 -12 3 3 0 11 -7 18 -10 9 -11 8 -5 -6z"/>
<path d="M2790 5645 c7 -9 15 -13 17 -11 7 7 -7 26 -19 26 -6 0 -6 -6 2 -15z"/>
<path d="M1320 5629 c0 -5 5 -7 10 -4 6 3 10 8 10 11 0 2 -4 4 -10 4 -5 0 -10
-5 -10 -11z"/>
<path d="M1310 5591 c0 -25 6 -27 13 -6 4 8 2 17 -3 20 -6 4 -10 -3 -10 -14z"/>
<path d="M2654 5578 c-4 -13 -8 -44 -9 -70 -1 -26 -7 -54 -14 -62 -16 -19 -6
-90 11 -80 6 4 8 3 4 -4 -3 -6 0 -26 8 -44 8 -18 18 -42 21 -53 5 -14 9 -16
12 -7 3 8 -2 33 -12 57 -9 25 -14 49 -10 54 3 6 3 22 -1 36 -5 20 -9 23 -15
13 -6 -9 -9 -7 -9 10 0 12 6 22 14 22 8 0 17 7 20 16 9 24 7 31 -4 14 -8 -13
-10 -13 -10 2 0 9 5 20 10 23 13 8 13 82 1 90 -5 3 -13 -5 -17 -17z"/>
<path d="M1271 5574 c0 -11 3 -14 6 -6 3 7 2 16 -1 19 -3 4 -6 -2 -5 -13z"/>
<path d="M1295 5549 c-4 -6 -5 -12 -2 -15 2 -3 7 2 10 11 7 17 1 20 -8 4z"/>
<path d="M1240 5503 c-21 -47 -21 -72 0 -32 14 25 31 79 25 79 -2 0 -13 -21
-25 -47z"/>
<path d="M1287 5514 c-4 -4 -7 -17 -7 -28 1 -19 1 -20 11 -3 11 19 8 43 -4 31z"/>
<path d="M2534 5493 c3 -10 8 -35 12 -55 3 -21 10 -38 15 -38 5 0 9 -10 9 -22
0 -32 11 -68 20 -68 4 0 4 18 -1 41 -5 22 -6 45 -3 51 4 6 2 8 -4 4 -6 -4 -17
15 -27 49 -8 30 -18 55 -21 55 -3 0 -3 -8 0 -17z"/>
<path d="M2695 5486 c-14 -33 -6 -95 21 -160 6 -16 4 -18 -9 -13 -21 8 -21 4
-2 -33 11 -21 12 -30 4 -30 -16 0 -1 -15 14 -15 7 0 11 -9 9 -19 -3 -13 1 -17
12 -13 8 3 18 2 21 -3 4 -6 11 -10 18 -10 6 0 1 7 -12 16 -13 9 -29 32 -37 50
-18 43 -18 49 1 34 9 -7 14 -19 11 -26 -11 -28 116 -101 160 -92 10 2 18 15
20 31 2 24 -1 27 -26 27 -16 0 -32 5 -35 10 -3 6 -19 10 -35 10 -56 0 -81 36
-105 151 -16 73 -25 98 -30 85z m195 -274 l25 -11 -28 0 c-26 -1 -97 23 -97
32 0 6 71 -9 100 -21z"/>
<path d="M2252 5460 c0 -14 2 -19 5 -12 2 6 2 18 0 25 -3 6 -5 1 -5 -13z"/>
<path d="M2500 5454 c0 -6 3 -14 8 -18 4 -4 8 -12 8 -17 1 -5 2 -13 3 -19 0
-5 6 -10 12 -10 6 0 7 5 2 13 -4 6 -8 18 -10 26 -2 17 -23 39 -23 25z"/>
<path d="M1202 5405 c-7 -22 -12 -46 -12 -54 0 -8 -7 -22 -16 -32 -10 -11 -12
-19 -5 -24 12 -7 31 34 31 64 0 9 5 22 11 28 6 6 9 21 7 34 -3 20 -6 18 -16
-16z"/>
<path d="M2252 5410 c0 -14 2 -19 5 -12 2 6 2 18 0 25 -3 6 -5 1 -5 -13z"/>
<path d="M2954 5358 c24 -54 45 -150 25 -115 -5 9 -16 17 -23 17 -11 0 -12
-10 -5 -47 5 -25 11 -49 14 -51 3 -3 12 12 20 33 19 43 9 108 -25 175 -29 58
-33 49 -6 -12z"/>
<path d="M1240 5380 c-6 -11 -8 -20 -6 -20 3 0 10 9 16 20 6 11 8 20 6 20 -3
0 -10 -9 -16 -20z"/>
<path d="M1218 5307 c-3 -19 -2 -25 4 -19 6 6 8 18 6 28 -3 14 -5 12 -10 -9z"/>
<path d="M2565 5270 c-3 -6 -3 -20 0 -31 6 -17 9 -19 16 -8 12 20 11 31 -3 23
-8 -5 -9 -2 -5 9 7 19 2 23 -8 7z"/>
<path d="M2256 5080 c3 -91 12 -275 20 -409 13 -199 13 -245 2 -252 -9 -6 -6
-11 12 -17 14 -5 26 -9 28 -7 1 1 -2 44 -7 96 -6 52 -18 216 -27 364 -20 339
-34 452 -28 225z"/>
<path d="M2586 5213 c-6 -14 -5 -15 5 -6 7 7 10 15 7 18 -3 3 -9 -2 -12 -12z"/>
<path d="M1170 5211 c0 -6 4 -13 10 -16 6 -3 7 1 4 9 -7 18 -14 21 -14 7z"/>
<path d="M2301 5194 c0 -11 3 -14 6 -6 3 7 2 16 -1 19 -3 4 -6 -2 -5 -13z"/>
<path d="M2604 5185 c11 -54 70 -255 73 -251 5 5 -50 209 -67 246 -7 16 -9 18
-6 5z"/>
<path d="M966 5155 c-22 -16 -40 -20 -32 -6 3 4 -6 6 -19 3 -30 -5 -44 -22
-20 -22 11 0 15 -5 12 -14 -3 -8 -1 -17 6 -20 9 -3 9 -7 -1 -14 -7 -5 -10 -16
-6 -25 3 -9 2 -17 -2 -17 -5 0 -10 -18 -11 -40 -2 -22 2 -40 7 -40 6 0 10 -17
9 -37 l-1 -38 -13 35 c-12 32 -14 25 -14 -94 -1 -71 2 -127 5 -123 3 3 6 38 5
79 0 40 4 80 9 88 7 11 10 2 10 -32 0 -26 3 -49 8 -51 12 -8 11 167 -2 176 -8
5 -7 10 4 17 11 7 12 12 4 18 -9 5 -9 23 -2 65 9 52 14 60 39 69 16 5 29 16
29 24 0 17 0 17 -24 -1z"/>
<path d="M2295 5161 c-5 -10 5 -211 30 -557 8 -110 15 -206 15 -212 0 -7 10
-12 23 -12 13 0 17 3 11 8 -11 6 -24 133 -39 362 -3 41 -10 140 -16 220 -7 80
-13 157 -13 173 -1 30 -2 31 -11 18z"/>
<path d="M2592 5145 c0 -11 4 -31 8 -45 6 -20 8 -21 8 -5 0 11 -4 31 -8 45 -6
20 -8 21 -8 5z"/>
<path d="M1121 5034 c0 -11 3 -14 6 -6 3 7 2 16 -1 19 -3 4 -6 -2 -5 -13z"/>
<path d="M1087 5003 c-4 -3 -7 -16 -6 -27 0 -19 1 -19 10 3 10 24 8 36 -4 24z"/>
<path d="M2682 4900 c0 -14 2 -19 5 -12 2 6 2 18 0 25 -3 6 -5 1 -5 -13z"/>
<path d="M3036 4912 c-4 -7 -2 -12 3 -12 6 0 11 -4 11 -10 0 -5 -7 -10 -15
-10 -8 0 -12 -6 -9 -14 3 -8 12 -12 20 -9 10 4 12 0 8 -11 -3 -9 -10 -14 -14
-11 -4 3 -11 -2 -14 -11 -4 -11 1 -18 14 -21 23 -6 25 -30 5 -56 -13 -18 -13
-27 1 -74 5 -18 2 -23 -12 -23 -12 0 -15 -3 -8 -8 17 -10 14 -64 -4 -84 -14
-16 -14 -18 1 -18 10 0 17 -4 17 -10 0 -5 -7 -10 -15 -10 -16 0 -19 -9 -9 -34
10 -26 21 -19 45 32 18 38 23 69 27 167 4 120 -5 183 -31 219 -10 13 -16 15
-21 8z m24 -177 c0 -8 -4 -15 -10 -15 -5 0 -7 7 -4 15 4 8 8 15 10 15 2 0 4
-7 4 -15z m10 -51 c0 -8 -4 -12 -10 -9 -5 3 -10 13 -10 21 0 8 5 12 10 9 6 -3
10 -13 10 -21z"/>
<path d="M2687 4851 c-4 -17 -3 -21 5 -13 5 5 8 16 6 23 -3 8 -7 3 -11 -10z"/>
<path d="M2737 4755 c6 -51 9 -62 18 -54 2 3 -2 27 -10 54 l-14 50 6 -50z"/>
<path d="M2754 4669 c4 -13 10 -41 13 -62 3 -21 10 -40 16 -44 6 -4 8 0 5 9
-4 9 -10 36 -13 62 -4 25 -12 49 -18 53 -7 4 -8 -2 -3 -18z"/>
<path d="M870 4553 c0 -69 3 -123 6 -120 10 9 11 247 2 247 -5 0 -8 -57 -8
-127z"/>
<path d="M999 4638 c-3 -22 -1 -34 4 -29 5 5 7 21 5 37 -3 27 -4 26 -9 -8z"/>
<path d="M901 4623 c1 -10 5 -29 9 -43 7 -21 8 -19 9 18 1 23 -3 42 -9 42 -5
0 -10 -8 -9 -17z"/>
<path d="M1451 4624 c0 -11 3 -14 6 -6 3 7 2 16 -1 19 -3 4 -6 -2 -5 -13z"/>
<path d="M2734 4589 c-3 -6 -1 -16 5 -22 8 -8 11 -5 11 11 0 24 -5 28 -16 11z"/>
<path d="M976 4538 c-7 -29 -8 -53 0 -46 7 8 17 68 11 68 -3 0 -7 -10 -11 -22z"/>
<path d="M1017 4543 c-4 -3 -7 -18 -6 -32 1 -26 1 -25 10 3 9 31 7 41 -4 29z"/>
<path d="M2780 4545 c0 -6 9 -46 20 -90 11 -44 20 -90 20 -102 0 -12 5 -25 10
-28 6 -3 10 -2 10 2 0 25 -43 209 -51 218 -6 6 -9 6 -9 0z"/>
<path d="M2751 4513 c1 -10 4 -29 8 -43 7 -25 8 -25 12 6 3 18 0 35 -8 43 -10
9 -13 8 -12 -6z"/>
<path d="M967 4473 c-10 -19 -17 -64 -9 -59 6 3 12 19 14 36 5 30 3 37 -5 23z"/>
<path d="M1823 4453 c31 -2 83 -2 115 0 31 2 5 3 -58 3 -63 0 -89 -1 -57 -3z"/>
<path d="M2028 4453 c7 -3 16 -2 19 1 4 3 -2 6 -13 5 -11 0 -14 -3 -6 -6z"/>
<path d="M2060 4450 c0 -5 5 -10 11 -10 5 0 7 5 4 10 -3 6 -8 10 -11 10 -2 0
-4 -4 -4 -10z"/>
<path d="M2773 4400 c6 -22 13 -38 15 -36 6 7 -10 76 -18 76 -4 0 -2 -18 3
-40z"/>
<path d="M872 4394 c-1 -13 0 -24 2 -24 7 0 14 40 7 44 -4 3 -8 -6 -9 -20z"/>
<path d="M1508 4413 c7 -3 16 -2 19 1 4 3 -2 6 -13 5 -11 0 -14 -3 -6 -6z"/>
<path d="M945 4390 c-3 -5 -1 -10 4 -10 6 0 11 5 11 10 0 6 -2 10 -4 10 -3 0
-8 -4 -11 -10z"/>
<path d="M980 4365 c0 -8 2 -15 4 -15 2 0 6 7 10 15 3 8 1 15 -4 15 -6 0 -10
-7 -10 -15z"/>
<path d="M2400 4370 c8 -5 20 -10 25 -10 6 0 3 5 -5 10 -8 5 -19 10 -25 10 -5
0 -3 -5 5 -10z"/>
<path d="M936 4362 c-4 -7 -5 -16 -2 -21 3 -4 1 -22 -4 -39 -5 -18 -5 -34 0
-37 5 -3 12 15 15 39 8 50 3 78 -9 58z"/>
<path d="M1895 4360 c-4 -6 3 -10 14 -10 25 0 27 6 6 13 -8 4 -17 2 -20 -3z"/>
<path d="M892 4340 c0 -14 2 -19 5 -12 2 6 2 18 0 25 -3 6 -5 1 -5 -13z"/>
<path d="M1276 4338 c3 -4 11 -5 19 -1 21 7 19 12 -4 10 -11 0 -18 -5 -15 -9z"/>
<path d="M979 4338 c-7 -24 -7 -48 0 -52 5 -3 8 8 7 24 -1 25 -4 37 -7 28z"/>
<path d="M2790 4311 c0 -11 4 -22 9 -25 4 -3 6 6 3 19 -5 30 -12 33 -12 6z"/>
<path d="M871 4295 c0 -16 3 -37 9 -45 15 -24 17 -7 4 35 -12 38 -12 38 -13
10z"/>
<path d="M2837 4263 c2 -21 6 -47 8 -58 2 -11 4 -31 4 -44 1 -13 4 -22 7 -18
8 8 -7 157 -16 157 -4 0 -6 -17 -3 -37z"/>
<path d="M2580 4286 c0 -2 7 -6 15 -10 8 -3 15 -1 15 4 0 6 -7 10 -15 10 -8 0
-15 -2 -15 -4z"/>
<path d="M1146 4271 c-4 -5 3 -7 14 -4 23 6 26 13 6 13 -8 0 -17 -4 -20 -9z"/>
<path d="M2625 4260 c3 -5 11 -10 16 -10 6 0 7 5 4 10 -3 6 -11 10 -16 10 -6
0 -7 -4 -4 -10z"/>
<path d="M917 4235 c-4 -8 -2 -17 3 -20 6 -4 10 3 10 14 0 25 -6 27 -13 6z"/>
<path d="M2816 4178 c2 -38 2 -68 -2 -68 -4 0 -20 14 -36 31 -47 49 -40 29 8
-24 l44 -49 -1 39 c0 21 -5 61 -9 88 -8 46 -9 44 -4 -17z"/>
<path d="M2695 4206 c17 -14 35 -26 40 -26 11 1 -20 27 -50 41 -11 6 -6 -1 10
-15z"/>
<path d="M1808 4203 c-13 -3 -18 -14 -18 -36 l0 -32 95 3 95 3 0 28 c0 26 -4
29 -46 35 -51 7 -99 6 -126 -1z m155 -27 c5 -12 -10 -15 -75 -18 -78 -3 -96 2
-83 22 10 16 152 13 158 -4z"/>
<path d="M873 4180 c1 -11 5 -20 9 -20 4 0 8 9 8 20 0 11 -4 20 -9 20 -6 0 -9
-9 -8 -20z"/>
<path d="M1678 4182 c-16 -2 -28 -8 -28 -14 0 -6 12 -8 31 -4 17 3 47 6 65 6
19 0 34 4 34 9 0 9 -40 10 -102 3z"/>
<path d="M1995 4182 c13 -12 115 -22 115 -11 0 5 -1 9 -2 9 -51 9 -121 10
-113 2z"/>
<path d="M922 4171 c-7 -4 -14 -14 -15 -22 -2 -8 -6 -20 -11 -27 -4 -7 -6 -15
-4 -18 3 -2 14 14 26 36 11 22 20 40 19 40 -1 0 -8 -4 -15 -9z"/>
<path d="M1454 4168 c-3 -4 -27 -10 -54 -14 -28 -4 -50 -10 -50 -13 0 -4 -17
-13 -37 -20 -21 -8 -55 -25 -75 -38 -21 -13 -38 -21 -38 -17 0 3 -7 -2 -16
-10 -8 -9 -20 -14 -25 -11 -5 4 -9 2 -9 -4 0 -5 -20 -19 -46 -31 -25 -12 -43
-24 -42 -26 2 -2 58 23 123 56 146 72 174 84 250 105 68 19 94 36 51 33 -15
-1 -30 -6 -32 -10z"/>
<path d="M1543 4157 c-24 -5 -43 -14 -43 -20 0 -5 10 -6 23 -3 12 3 41 9 64
12 24 4 40 11 37 15 -6 11 -25 10 -81 -4z"/>
<path d="M2144 4159 c-3 -5 9 -9 25 -9 17 0 31 4 31 9 0 5 -11 9 -25 9 -14 0
-28 -4 -31 -9z"/>
<path d="M2210 4151 c0 -10 50 -25 58 -16 8 7 1 11 -30 19 -16 3 -28 2 -28 -3z"/>
<path d="M1440 4133 c-8 -3 -26 -10 -40 -16 -14 -6 -29 -11 -35 -11 -5 -1 -11
-9 -13 -18 -3 -16 -1 -16 25 -3 15 8 43 18 61 21 18 3 32 12 32 20 0 15 -6 16
-30 7z"/>
<path d="M1615 4130 c-19 -8 -19 -9 2 -9 12 -1 25 4 28 9 7 12 -2 12 -30 0z"/>
<path d="M2078 4133 c6 -2 18 -2 25 0 6 3 1 5 -13 5 -14 0 -19 -2 -12 -5z"/>
<path d="M2300 4131 c0 -5 27 -18 61 -30 40 -13 59 -16 56 -8 -2 7 -9 13 -15
13 -7 1 -14 3 -17 4 -3 1 -9 4 -15 5 -5 1 -12 4 -15 5 -3 1 -9 3 -14 4 -5 0
-13 4 -17 9 -10 10 -24 9 -24 -2z"/>
<path d="M2148 4123 c7 -3 16 -2 19 1 4 3 -2 6 -13 5 -11 0 -14 -3 -6 -6z"/>
<path d="M2860 4088 c0 -26 4 -38 8 -30 8 12 4 72 -4 72 -2 0 -4 -19 -4 -42z"/>
<path d="M923 4075 c0 -27 2 -38 4 -22 2 15 2 37 0 50 -2 12 -4 0 -4 -28z"/>
<path d="M1568 4113 c7 -3 16 -2 19 1 4 3 -2 6 -13 5 -11 0 -14 -3 -6 -6z"/>
<path d="M1656 4107 c3 -10 9 -15 12 -12 3 3 0 11 -7 18 -10 9 -11 8 -5 -6z"/>
<path d="M1820 4083 c0 -80 21 -267 30 -273 5 -3 26 -4 45 -2 25 3 35 9 35 21
0 10 -7 18 -15 18 -8 0 -12 -4 -9 -9 3 -4 1 -8 -5 -8 -5 0 -15 -2 -23 -5 -18
-7 -41 103 -25 123 6 8 6 12 -1 12 -5 0 -9 16 -8 35 1 19 -1 35 -4 35 -8 0 -4
59 4 67 3 3 22 6 43 7 36 1 38 0 38 -31 0 -17 3 -29 7 -26 5 2 8 -1 8 -6 0 -6
-4 -11 -8 -11 -4 0 -7 -21 -6 -47 1 -27 -2 -53 -7 -60 -11 -12 7 -30 18 -19 4
3 0 6 -8 6 -11 0 -11 2 -1 8 8 6 15 44 19 105 l6 97 -67 0 -66 0 0 -37z"/>
<path d="M2198 4113 c7 -3 16 -2 19 1 4 3 -2 6 -13 5 -11 0 -14 -3 -6 -6z"/>
<path d="M2230 4110 c0 -7 71 -22 77 -16 2 2 -14 8 -37 14 -22 5 -40 6 -40 2z"/>
<path d="M1506 4101 c-3 -4 6 -6 19 -3 14 2 25 6 25 8 0 8 -39 4 -44 -5z"/>
<path d="M1620 4099 c0 -5 5 -7 10 -4 6 3 10 8 10 11 0 2 -4 4 -10 4 -5 0 -10
-5 -10 -11z"/>
<path d="M1576 4088 c3 -5 10 -6 15 -3 13 9 11 12 -6 12 -8 0 -12 -4 -9 -9z"/>
<path d="M886 4082 c-3 -6 -1 -14 5 -17 15 -10 25 3 12 16 -7 7 -13 7 -17 1z"/>
<path d="M2400 4056 c191 -75 188 -73 192 -122 2 -24 0 -44 -4 -44 -17 0 11
-54 50 -95 24 -25 40 -45 35 -45 -12 1 -103 87 -103 97 0 6 -10 9 -22 8 -13
-1 -28 1 -33 6 -6 4 -22 9 -35 11 -14 2 -29 6 -35 10 -5 3 -55 5 -110 4 -107
-3 -148 -16 -212 -70 -28 -24 -43 -25 -43 -4 0 5 4 7 9 3 5 -3 12 -1 15 4 4 5
-2 8 -11 7 -10 -2 -18 -12 -19 -24 -2 -29 -22 -52 -40 -45 -7 3 -12 9 -9 13 3
5 0 12 -6 16 -8 4 -9 3 -5 -4 13 -21 -35 -33 -129 -34 -72 0 -101 4 -120 16
-30 20 -24 36 13 35 15 0 21 -3 14 -6 -32 -12 43 -33 117 -32 42 0 70 3 64 6
-7 2 -13 11 -13 19 0 8 -4 14 -10 14 -5 0 -10 -7 -10 -15 0 -20 -92 -21 -109
-2 -6 8 -14 53 -17 101 l-7 87 -65 -3 c-49 -2 -66 -7 -67 -18 -2 -12 10 -15
64 -14 l66 2 -60 -8 -60 -7 60 -3 60 -3 -60 -7 -60 -7 60 -3 60 -3 -60 -7 -60
-7 58 -1 c43 -2 57 -6 57 -17 0 -11 -12 -15 -44 -15 -25 0 -47 -3 -49 -7 -3
-5 17 -6 44 -5 41 3 49 1 49 -13 0 -12 -5 -15 -17 -10 -10 4 -27 9 -38 12 -16
4 -17 3 -5 -6 12 -8 12 -13 3 -22 -10 -10 -18 -8 -37 10 -23 22 -24 22 -19 3
3 -11 16 -23 29 -26 15 -4 22 -11 18 -18 -4 -7 -3 -8 4 -4 7 4 12 3 12 -2 0
-32 218 -43 250 -13 10 10 15 10 18 2 2 -6 9 -8 14 -5 7 4 8 2 4 -4 -4 -7 -13
-12 -20 -12 -8 0 -19 -6 -25 -14 -17 -20 -54 -25 -241 -31 -91 -3 -197 -8
-236 -10 -70 -4 -72 -4 -68 18 l5 22 -10 -22 c-10 -22 -16 -23 -143 -24 -73
-1 -146 -3 -163 -4 -16 -2 -49 -3 -72 -4 -24 0 -43 -5 -43 -9 0 -9 256 -6 654
8 236 9 275 12 309 29 22 11 45 17 50 14 6 -3 7 -1 3 5 -7 12 61 72 78 68 6
-2 8 -1 3 2 -11 6 36 40 90 64 38 18 67 22 138 22 50 0 109 -5 132 -12 36 -11
129 -67 159 -96 6 -6 28 -24 49 -41 21 -16 44 -36 51 -43 10 -10 14 -10 14 -1
0 6 -8 18 -17 25 -17 13 -17 14 0 8 9 -3 17 -2 17 4 0 5 -8 9 -17 8 -10 0 -18
2 -18 6 0 4 -18 25 -39 47 l-39 40 24 10 c21 9 22 10 4 11 l-20 1 20 9 c27 12
2 12 -28 1 -14 -6 -28 -7 -31 -3 -4 3 10 12 31 19 l38 12 -40 -5 c-30 -3 -35
-2 -20 5 l20 10 -20 1 -20 1 20 9 20 9 -20 0 c-17 1 -17 3 -5 11 13 9 13 10 0
10 -13 0 -13 1 0 10 13 8 13 10 1 10 -11 0 -10 4 4 13 17 13 17 15 -6 30 -13
10 -29 17 -35 17 -7 0 -10 8 -7 20 3 12 0 20 -7 20 -7 0 -10 -7 -6 -16 7 -18
-12 -14 -83 18 -47 21 -129 48 -146 48 -5 -1 28 -16 75 -34z m-627 -103 c-18
-2 -48 -2 -65 0 -18 2 -4 4 32 4 36 0 50 -2 33 -4z m877 -127 c0 -11 -19 -15
-25 -6 -3 5 1 10 9 10 9 0 16 -2 16 -4z m45 -86 c3 -5 1 -10 -4 -10 -6 0 -11
5 -11 10 0 6 2 10 4 10 3 0 8 -4 11 -10z"/>
<path d="M1290 4064 c0 -17 22 -14 28 4 2 7 -3 12 -12 12 -9 0 -16 -7 -16 -16z"/>
<path d="M1400 4070 c-9 -6 -10 -10 -3 -10 6 0 15 5 18 10 8 12 4 12 -15 0z"/>
<path d="M1507 4073 c-9 -9 -9 -63 1 -63 4 0 7 16 8 35 1 38 0 38 -9 28z"/>
<path d="M2450 4075 c0 -2 14 -12 31 -21 24 -12 30 -12 26 -2 -2 7 -10 12 -16
11 -6 -2 -11 2 -11 7 0 6 -7 10 -15 10 -8 0 -15 -2 -15 -5z"/>
<path d="M1260 4055 c0 -8 5 -15 10 -15 6 0 10 7 10 15 0 8 -4 15 -10 15 -5 0
-10 -7 -10 -15z"/>
<path d="M1237 4054 c-4 -4 -7 -14 -7 -23 0 -11 3 -12 11 -4 6 6 10 16 7 23
-2 6 -7 8 -11 4z"/>
<path d="M1347 4054 c-3 -5 1 -15 9 -22 16 -14 18 -5 5 17 -5 7 -11 9 -14 5z"/>
<path d="M1669 4058 c-5 -9 -5 -48 -1 -43 6 6 11 45 5 45 -2 0 -4 -1 -4 -2z"/>
<path d="M2340 4051 c0 -6 7 -11 15 -11 8 0 23 -4 33 -9 25 -14 115 -57 127
-61 6 -2 18 -5 28 -8 9 -2 17 -9 17 -14 0 -5 5 -6 11 -2 18 11 -9 28 -101 67
-108 45 -130 51 -130 38z"/>
<path d="M2520 4046 c0 -9 5 -16 10 -16 6 0 10 4 10 9 0 6 -4 13 -10 16 -5 3
-10 -1 -10 -9z"/>
<path d="M870 4039 c0 -5 5 -7 10 -4 6 3 10 8 10 11 0 2 -4 4 -10 4 -5 0 -10
-5 -10 -11z"/>
<path d="M1460 4039 c0 -5 5 -7 10 -4 6 3 10 8 10 11 0 2 -4 4 -10 4 -5 0 -10
-5 -10 -11z"/>
<path d="M1200 4025 c0 -8 5 -15 10 -15 6 0 10 7 10 15 0 8 -4 15 -10 15 -5 0
-10 -7 -10 -15z"/>
<path d="M2864 4016 c3 -16 10 -34 16 -40 8 -8 10 -3 4 19 -9 41 -27 59 -20
21z"/>
<path d="M1270 4015 c-14 -8 -20 -14 -15 -14 6 0 21 6 35 14 14 8 21 14 15 14
-5 0 -21 -6 -35 -14z"/>
<path d="M1725 4010 l-50 -7 57 -1 c31 -1 60 3 63 8 3 6 0 9 -7 8 -7 0 -35 -4
-63 -8z"/>
<path d="M1976 4009 c3 -5 30 -9 61 -9 31 0 54 3 51 6 -10 10 -119 13 -112 3z"/>
<path d="M1210 3985 c-14 -8 -20 -14 -14 -15 5 0 19 7 30 15 24 18 16 19 -16
0z"/>
<path d="M1156 3981 c-4 -6 -1 -11 6 -12 7 0 4 -4 -7 -9 l-20 -9 20 -1 20 -1
-20 -9 -20 -9 20 -1 c17 -2 16 -3 -5 -10 l-25 -8 25 -2 25 -2 -25 -8 -25 -8
25 -2 c24 -2 23 -3 -5 -10 l-30 -8 28 -1 c15 0 27 -5 27 -9 0 -5 -15 -7 -32
-6 l-33 3 30 -7 c22 -6 29 -13 27 -27 -2 -16 -1 -17 7 -5 5 8 7 18 5 22 -3 4
-1 8 3 8 11 0 4 122 -7 133 -4 5 -11 4 -14 -2z"/>
<path d="M1488 3965 c-3 -14 -1 -25 3 -25 5 0 9 11 9 25 0 14 -2 25 -4 25 -2
0 -6 -11 -8 -25z"/>
<path d="M1630 3980 c-9 -6 -10 -10 -3 -10 6 0 15 5 18 10 8 12 4 12 -15 0z"/>
<path d="M1707 3983 c18 -2 50 -2 70 0 21 2 7 4 -32 4 -38 0 -55 -2 -38 -4z"/>
<path d="M2008 3983 c18 -2 45 -2 60 0 15 2 0 4 -33 4 -33 0 -45 -2 -27 -4z"/>
<path d="M1645 3960 c-3 -5 -1 -10 4 -10 6 0 11 5 11 10 0 6 -2 10 -4 10 -3 0
-8 -4 -11 -10z"/>
<path d="M2037 3961 l58 -5 -60 -6 -60 -7 60 -3 60 -3 -65 -7 -65 -7 65 -3 65
-3 -65 -7 -65 -7 63 -1 c48 -2 62 -5 62 -17 0 -11 -13 -15 -52 -17 l-53 -1 50
-7 c58 -8 51 -12 -20 -12 l-50 0 50 -8 c55 -8 56 -9 5 -16 -44 -6 -65 -24 -27
-24 15 0 27 5 27 10 0 6 5 10 11 10 5 0 7 -6 4 -12 -4 -7 9 3 28 23 31 32 35
42 34 85 l-2 49 -58 1 -57 1 57 -6z"/>
<path d="M2650 3949 c0 -6 5 -19 10 -29 8 -15 6 -22 -7 -30 -16 -11 -16 -11
-1 -6 21 6 23 3 52 -80 25 -72 31 -69 42 24 5 48 3 61 -11 76 -23 23 -30 13
-12 -16 11 -16 13 -34 8 -63 -7 -37 -8 -38 -15 -15 -4 14 -15 40 -24 58 -13
26 -14 34 -4 41 9 5 5 13 -13 29 -14 12 -25 17 -25 11z"/>
<path d="M1098 3936 c-13 -9 -14 -16 -6 -24 8 -8 8 -15 -2 -28 -8 -9 -15 -23
-16 -31 -5 -29 -14 -44 -24 -38 -15 9 -12 62 5 79 23 23 18 28 -11 10 -24 -16
-25 -21 -18 -68 12 -88 18 -95 39 -40 17 47 53 131 62 147 7 11 -10 8 -29 -7z"/>
<path d="M1647 3926 c-3 -8 -3 -30 0 -49 5 -34 22 -43 40 -22 4 4 3 5 -4 1
-13 -7 -29 36 -24 67 3 21 -5 23 -12 3z"/>
<path d="M1475 3894 c-9 -50 0 -53 13 -4 5 22 6 40 2 40 -4 0 -11 -16 -15 -36z"/>
<path d="M991 3879 c-1 -8 4 -42 10 -74 8 -43 8 -60 -1 -65 -8 -5 -6 -9 6 -14
9 -3 19 -4 22 -1 3 3 1 5 -5 5 -6 0 -9 8 -7 18 3 9 -2 46 -10 82 -8 36 -14 58
-15 49z"/>
<path d="M1918 3883 c7 -3 16 -2 19 1 4 3 -2 6 -13 5 -11 0 -14 -3 -6 -6z"/>
<path d="M2003 3883 c15 -2 39 -2 55 0 15 2 2 4 -28 4 -30 0 -43 -2 -27 -4z"/>
<path d="M1723 3863 c15 -2 37 -2 50 0 12 2 0 4 -28 4 -27 0 -38 -2 -22 -4z"/>
<path d="M1118 3833 c6 -2 18 -2 25 0 6 3 1 5 -13 5 -14 0 -19 -2 -12 -5z"/>
<path d="M1110 3816 c0 -2 9 -6 20 -9 11 -3 18 -1 14 4 -5 9 -34 13 -34 5z"/>
<path d="M2755 3780 c-4 -23 -5 -43 -2 -46 2 -3 7 14 11 37 4 23 5 44 2 46 -2
2 -7 -14 -11 -37z"/>
<path d="M2668 3803 c7 -3 16 -2 19 1 4 3 -2 6 -13 5 -11 0 -14 -3 -6 -6z"/>
<path d="M921 3774 c0 -11 3 -14 6 -6 3 7 2 16 -1 19 -3 4 -6 -2 -5 -13z"/>
<path d="M1078 3783 c21 -8 13 -27 -25 -60 -20 -18 -35 -34 -32 -37 2 -2 18 8
34 23 37 34 74 77 58 68 -6 -4 -14 -3 -18 3 -3 5 -12 10 -18 9 -9 0 -9 -2 1
-6z"/>
<path d="M1970 3786 c0 -2 7 -7 16 -10 8 -3 12 -2 9 4 -6 10 -25 14 -25 6z"/>
<path d="M2495 3680 c-3 -5 1 -10 10 -10 9 0 13 5 10 10 -3 6 -8 10 -10 10 -2
0 -7 -4 -10 -10z"/>
<path d="M2173 3655 c0 -8 4 -12 9 -9 5 3 6 10 3 15 -9 13 -12 11 -12 -6z"/>
<path d="M1835 3640 c-55 -4 -253 -11 -440 -14 -187 -4 -342 -9 -344 -12 -5
-5 8 -5 211 -7 88 -1 154 -5 151 -10 -3 -5 3 -5 13 1 11 5 82 11 158 11 77 1
143 4 147 7 5 3 18 0 29 -6 13 -7 20 -7 20 0 0 5 19 9 43 9 23 -1 44 -1 47 0
3 1 27 3 53 5 27 2 54 9 60 15 12 12 9 12 -148 1z"/>
<path d="M1020 3614 c0 -8 5 -12 10 -9 6 4 8 11 5 16 -9 14 -15 11 -15 -7z"/>
<path d="M2282 3608 c-68 -4 -162 -14 -210 -23 -48 -8 -100 -15 -116 -15 -22
0 -27 -3 -19 -11 8 -8 39 -7 116 6 57 9 112 15 122 14 18 -4 18 -5 1 -21 -25
-26 -7 -22 21 4 28 26 43 16 18 -12 -10 -11 -13 -20 -7 -20 7 0 12 5 12 10 0
6 5 10 10 10 17 0 11 -23 -13 -52 -15 -19 -40 -32 -75 -40 -55 -13 -69 -28
-27 -28 16 0 25 -6 25 -15 0 -13 -12 -19 -32 -16 -4 0 -5 -6 -1 -15 3 -9 9
-12 12 -7 3 5 19 14 35 21 22 10 26 16 17 22 -18 10 -7 26 21 33 22 6 22 5 4
-8 -11 -8 -14 -15 -7 -15 7 0 10 -4 7 -9 -4 -5 2 -8 11 -6 10 2 21 4 26 4 4 1
7 6 7 12 0 7 -5 8 -13 3 -7 -5 -4 -1 6 8 11 10 23 16 27 13 4 -3 10 5 13 16 5
20 11 21 77 17 55 -3 74 -8 81 -21 6 -9 16 -17 24 -17 9 0 12 -6 9 -15 -4 -9
0 -15 9 -15 35 0 108 -40 117 -65 13 -35 21 -31 13 8 -8 39 -26 53 -75 61 -41
7 -57 27 -68 89 -9 45 -3 46 32 7 34 -38 46 -38 43 1 -1 20 -11 39 -26 50 -13
10 -21 20 -18 23 6 6 80 -4 174 -22 51 -10 32 -24 -33 -23 -67 0 -82 -6 -82
-35 0 -19 8 -28 30 -35 30 -11 41 -29 18 -29 -34 0 -95 24 -111 43 -16 20 -17
21 -11 2 12 -33 24 -44 60 -51 19 -3 34 -10 34 -15 0 -5 11 -3 25 3 16 7 25
19 25 34 0 17 -7 25 -25 30 -15 4 -25 13 -25 25 0 15 8 18 58 18 l59 -1 -14
-56 c-7 -31 -20 -81 -29 -110 -14 -48 -13 -75 1 -60 3 3 19 58 35 124 17 65
33 126 36 135 9 30 -220 50 -434 37z m163 -55 c-4 -27 -8 -49 -9 -50 -1 -1
-46 -3 -99 -4 -79 -1 -97 -4 -93 -15 3 -8 -1 -14 -10 -14 -12 0 -13 4 -4 20 6
11 15 18 19 15 13 -7 21 20 10 36 -16 25 -10 47 14 52 12 2 57 5 101 6 l78 1
-7 -47z m64 -2 c14 -22 14 -23 -5 -19 -10 2 -18 10 -16 16 1 7 -2 12 -8 12 -5
0 -10 5 -10 11 0 17 22 5 39 -20z"/>
<path d="M2280 3555 c0 -13 12 -15 72 -13 46 2 73 7 76 16 3 9 -16 12 -72 12
-62 0 -76 -3 -76 -15z"/>
<path d="M1054 3564 c3 -10 15 -57 26 -104 40 -167 40 -168 61 -163 20 6 27
25 7 20 -15 -3 -37 56 -37 100 -1 17 -5 34 -10 37 -5 3 -8 24 -7 46 0 26 -3
40 -11 40 -7 0 -13 4 -13 10 0 7 128 8 375 4 273 -5 375 -3 375 5 0 8 -105 11
-369 11 -203 0 -377 3 -386 7 -14 5 -16 2 -11 -13z"/>
<path d="M1127 3528 c2 -5 26 -8 54 -8 41 0 49 -3 49 -19 0 -10 7 -25 16 -32
14 -11 18 -10 30 6 8 10 14 25 14 32 0 9 16 14 48 15 l47 1 -55 6 -55 6 -3
-32 c-2 -18 -7 -33 -13 -33 -5 0 -9 15 -9 33 l0 32 -64 0 c-35 0 -62 -3 -59
-7z"/>
<path d="M1010 3525 c0 -5 5 -17 10 -25 5 -8 10 -10 10 -5 0 6 -5 17 -10 25
-5 8 -10 11 -10 5z"/>
<path d="M1394 3522 c3 -6 -3 -45 -14 -88 -10 -43 -18 -79 -17 -79 1 -1 43 1
92 4 l90 6 -80 5 -80 5 3 33 c2 18 9 50 16 70 l13 37 87 -2 c47 -1 86 2 86 6
0 4 -45 9 -101 10 -63 1 -99 -1 -95 -7z"/>
<path d="M1675 3520 c-3 -5 1 -10 10 -10 9 0 13 5 10 10 -3 6 -8 10 -10 10 -2
0 -7 -4 -10 -10z"/>
<path d="M1623 3513 c9 -2 23 -2 30 0 6 3 -1 5 -18 5 -16 0 -22 -2 -12 -5z"/>
<path d="M2124 3503 c-9 -7 -22 -14 -28 -16 -6 -2 -8 -7 -5 -11 7 -8 106 22
114 35 9 14 -59 8 -81 -8z"/>
<path d="M2292 3439 c-13 -5 -29 -6 -35 -2 -7 3 -8 2 -4 -3 5 -5 47 -9 93 -9
71 0 82 2 68 12 -20 15 -88 16 -122 2z"/>
<path d="M1638 3405 c2 -19 7 -35 11 -35 11 0 7 63 -5 67 -6 2 -8 -10 -6 -32z"/>
<path d="M2270 3399 c-36 -4 -76 -12 -90 -18 -22 -10 -18 -11 28 -8 32 3 52 0
52 -6 0 -7 5 -6 12 1 7 7 42 12 85 12 58 0 73 -3 73 -15 0 -8 7 -15 16 -15 14
0 15 2 3 17 -12 15 -12 16 4 10 10 -4 27 -7 37 -7 11 0 27 -8 37 -19 10 -10
29 -22 41 -26 23 -7 24 -7 5 12 -58 57 -151 76 -303 62z"/>
<path d="M1200 3357 c0 -8 -7 -20 -15 -27 -17 -14 -20 -30 -5 -30 6 0 10 5 10
12 0 6 7 19 16 29 10 11 12 19 5 24 -6 3 -11 0 -11 -8z"/>
<path d="M1240 3366 c0 -2 7 -7 16 -10 8 -3 12 -2 9 4 -6 10 -25 14 -25 6z"/>
<path d="M1305 3360 c-3 -5 3 -10 14 -10 12 0 21 5 21 10 0 6 -6 10 -14 10 -8
0 -18 -4 -21 -10z"/>
<path d="M1058 3353 c6 -2 12 -16 12 -29 0 -13 5 -24 10 -24 12 0 12 2 0 34
-5 14 -15 26 -22 25 -10 0 -10 -2 0 -6z"/>
<path d="M1227 3336 c-4 -10 -5 -21 -2 -24 9 -9 17 6 13 25 -3 17 -4 17 -11
-1z"/>
<path d="M2478 3343 c7 -3 16 -2 19 1 4 3 -2 6 -13 5 -11 0 -14 -3 -6 -6z"/>
<path d="M1887 3283 c18 -2 50 -2 70 0 21 2 7 4 -32 4 -38 0 -55 -2 -38 -4z"/>
<path d="M2325 3260 c11 -5 27 -9 35 -9 9 0 8 4 -5 9 -11 5 -27 9 -35 9 -9 0
-8 -4 5 -9z"/>
<path d="M2418 3253 c7 -3 16 -2 19 1 4 3 -2 6 -13 5 -11 0 -14 -3 -6 -6z"/>
<path d="M2710 3240 c-6 -10 -11 -42 -11 -70 -1 -34 -6 -50 -15 -50 -7 0 -11
6 -9 13 9 26 12 87 4 87 -5 0 -9 -10 -10 -22 -1 -22 -1 -22 -9 2 -4 14 -9 18
-9 10 -1 -13 -2 -13 -12 0 -7 11 -8 2 -3 -30 11 -68 12 -143 3 -128 -5 7 -7
-16 -5 -54 5 -74 -10 -105 -17 -36 -2 24 -2 9 0 -32 3 -41 7 -96 9 -122 3 -26
0 -49 -6 -53 -5 -3 -10 -33 -10 -66 0 -43 3 -58 12 -53 7 4 8 3 4 -4 -15 -24
-25 -11 -29 36 -3 46 -3 46 -5 -11 -1 -37 2 -56 8 -52 14 9 12 -9 -4 -47 -10
-23 -21 -144 -36 -403 -12 -203 -26 -374 -31 -380 -6 -6 -204 -11 -542 -13
-292 -2 -528 1 -523 5 4 4 58 11 119 14 88 5 67 6 -95 6 -120 0 -208 -4 -208
-9 0 -5 -6 -3 -13 4 -15 15 -43 332 -32 361 4 10 3 17 -4 17 -7 0 -12 33 -13
93 0 50 -3 76 -6 57 -5 -39 16 -469 24 -514 5 -21 3 -27 -7 -24 -10 3 -13 20
-11 59 2 42 0 50 -8 36 -6 -9 -8 -22 -4 -29 5 -7 3 -8 -6 -3 -10 6 -11 2 -7
-17 5 -17 2 -30 -8 -38 -8 -7 -15 -9 -15 -5 0 4 -8 1 -18 -6 -15 -12 -16 -12
-7 1 6 8 10 22 9 30 -1 8 -2 29 -3 45 -1 23 -3 27 -11 15 -7 -10 -10 16 -11
85 -2 132 -8 217 -15 224 -26 24 44 -1330 82 -1596 l6 -42 -47 15 c-33 9 -57
11 -79 5 l-31 -9 40 -1 c22 -1 56 -6 76 -11 41 -11 42 -15 55 -143 9 -96 27
-98 21 -3 -4 63 -2 76 9 72 11 -4 10 1 -3 21 -17 26 -43 220 -41 308 1 39 1
38 8 -10 l7 -50 1 43 c2 36 5 43 19 38 49 -14 102 -26 138 -31 22 -4 47 -8 55
-10 18 -5 109 -14 235 -23 l90 -7 27 -69 c26 -64 30 -101 8 -66 -6 10 -8 -28
-3 -102 4 -86 3 -118 -5 -118 -9 0 -12 37 -13 123 0 92 -3 116 -10 97 -10 -25
-11 -25 -26 -5 -14 18 -15 10 -10 -97 2 -65 0 -118 -4 -118 -5 0 -9 20 -9 44
0 34 -4 46 -17 49 -17 4 -17 5 0 6 25 2 21 21 -5 22 -22 1 -22 1 2 9 23 7 23
11 1 14 -18 2 -24 16 -8 16 9 0 17 5 17 11 0 5 -4 8 -9 4 -5 -3 -12 -1 -16 5
-3 5 0 10 8 10 8 0 17 7 21 15 3 8 1 15 -4 15 -6 0 -10 -5 -10 -12 0 -7 -7 -5
-17 5 -17 15 -18 10 -13 -86 3 -56 2 -106 -2 -111 -4 -6 -8 2 -8 17 0 17 -5
27 -15 27 -8 0 -15 5 -15 10 0 6 5 10 10 10 6 0 10 16 10 35 0 24 -5 35 -15
35 -8 0 -15 4 -15 10 0 5 7 7 15 4 8 -4 15 -1 15 4 0 6 -8 13 -17 15 -17 4
-17 5 0 6 11 1 17 9 17 24 0 18 -2 19 -10 7 -9 -13 -13 -12 -26 5 -15 19 -15
18 -10 -15 7 -51 10 -179 4 -186 -3 -3 -9 7 -12 21 -4 14 -11 23 -16 20 -6 -3
-10 1 -10 10 0 9 5 13 10 10 6 -3 10 5 10 19 0 15 -7 26 -17 29 -17 4 -17 5 0
6 9 0 17 5 17 10 0 5 -8 12 -17 14 -17 4 -17 5 0 6 11 1 17 9 17 27 0 16 -5
24 -12 21 -7 -2 -18 3 -25 12 -10 13 -11 -6 -6 -93 5 -82 3 -107 -5 -102 -7 4
-12 16 -12 27 0 11 -7 19 -16 19 -8 0 -12 5 -9 10 4 6 11 8 16 5 5 -4 9 -1 9
4 0 6 -7 11 -15 11 -8 0 -15 4 -15 10 0 5 7 7 15 4 8 -4 15 -1 15 4 0 6 -8 13
-17 15 -16 4 -15 5 1 6 20 1 20 1 0 16 -15 11 -16 14 -4 15 17 0 22 40 6 40
-5 0 -17 7 -26 15 -15 13 -15 10 -9 -43 11 -87 11 -154 -1 -147 -6 3 -10 22
-10 41 0 24 -5 34 -15 34 -8 0 -15 4 -15 10 0 5 7 7 15 4 8 -4 15 -1 15 5 0 6
-7 11 -15 11 -8 0 -15 4 -15 10 0 5 7 7 15 4 8 -4 15 -3 15 0 0 4 -10 11 -22
16 -20 8 -21 9 -4 9 20 1 20 1 0 17 -16 13 -16 15 -1 10 9 -3 17 -1 17 4 0 6
-5 10 -11 10 -7 0 -18 8 -25 18 -12 15 -13 12 -9 -23 14 -123 15 -165 5 -165
-5 0 -10 11 -10 25 0 16 -6 25 -15 25 -21 0 -19 38 3 43 16 4 16 5 0 6 -10 0
-18 6 -18 12 0 5 5 7 10 4 6 -3 10 -2 10 4 0 5 -8 12 -17 14 -16 4 -15 5 1 6
20 1 20 1 0 17 -16 13 -16 15 -1 10 9 -3 17 -1 17 4 0 6 -5 10 -11 10 -7 0
-18 8 -26 18 -12 15 -13 12 -9 -28 17 -153 17 -162 7 -156 -6 4 -11 23 -11 42
0 24 -5 34 -15 34 -8 0 -15 5 -15 11 0 5 5 7 10 4 6 -3 10 -2 10 4 0 5 -8 12
-17 14 -16 4 -15 5 1 6 20 1 20 1 0 17 -16 13 -16 15 -1 10 13 -4 17 0 17 21
0 14 -3 23 -7 20 -3 -4 -15 1 -26 10 -19 18 -19 17 -13 -42 4 -33 9 -75 12
-92 3 -18 1 -33 -5 -33 -5 0 -14 39 -21 88 -7 48 -17 95 -22 105 -15 29 -28
19 -27 -20 1 -38 1 -38 9 -8 7 28 8 29 10 5 1 -14 5 -49 9 -78 6 -40 5 -52 -5
-48 -8 3 -7 -5 4 -25 26 -45 171 -92 372 -120 98 -13 404 -17 500 -6 123 14
277 47 349 75 9 3 12 1 7 -6 -10 -17 6 -15 32 4 12 8 20 19 17 24 -13 21 34
47 106 59 96 17 102 19 54 20 -22 0 -61 -6 -87 -14 -45 -13 -52 -12 -49 8 0 4
6 75 12 158 9 118 8 153 -1 162 -10 9 -11 6 -8 -15 6 -30 12 -27 -112 -58
-145 -37 -552 -52 -810 -31 -135 11 -387 52 -412 67 -4 3 -8 24 -9 47 -1 31
-3 36 -7 19 -4 -13 -7 23 -8 80 -1 57 -8 209 -17 339 -26 367 -23 416 31 438
30 12 217 20 199 9 -7 -4 7 -8 30 -8 37 0 43 -3 49 -25 l6 -25 513 0 513 0 17
-36 c18 -38 17 -84 -11 -474 -20 -282 -20 -282 -108 -324 -64 -31 -237 -48
-503 -50 -101 0 -183 -2 -183 -3 0 -1 5 -14 10 -29 l11 -27 192 7 c217 8 276
11 282 18 3 3 -98 3 -225 0 -130 -3 -230 -1 -230 4 0 5 73 9 163 10 152 0 276
7 392 20 97 12 188 68 199 123 10 47 38 484 39 608 2 119 1 123 -24 148 l-25
26 -505 0 c-297 -1 -498 3 -489 8 12 7 893 27 995 22 46 -2 72 -25 78 -68 4
-38 0 -273 -8 -428 -2 -44 -5 -111 -6 -150 -1 -38 -6 -73 -11 -76 -5 -3 -6
-19 -2 -35 l8 -29 7 30 c4 17 8 66 9 110 1 44 5 71 8 60 2 -11 -1 -119 -7
-240 -18 -337 -19 -338 -11 -365 l7 -25 6 25 c3 14 8 102 11 195 3 94 12 285
20 425 20 341 38 881 32 944 -3 28 -8 125 -11 215 -3 91 -8 168 -11 173 -3 4
-1 8 5 8 5 0 12 -8 14 -17 2 -10 4 53 3 140 -1 88 2 160 5 162 3 2 4 30 1 61
-3 34 -1 55 5 51 5 -3 10 6 11 21 1 15 3 36 4 47 1 11 -2 30 -6 43 -5 16 -4
22 6 20 7 -2 13 4 13 12 0 8 5 31 11 51 14 43 29 149 21 149 -4 0 -11 -9 -17
-20z m-20 -151 c0 -5 -4 -9 -10 -9 -5 0 -10 7 -10 16 0 8 5 12 10 9 6 -3 10
-10 10 -16z m-40 -419 c0 -5 -4 -10 -10 -10 -5 0 -10 5 -10 10 0 6 5 10 10 10
6 0 10 -4 10 -10z m-23 -82 c-3 -8 -6 -5 -6 6 -1 11 2 17 5 13 3 -3 4 -12 1
-19z m-7 -72 c0 -17 -2 -18 -10 -6 -7 12 -10 8 -10 -15 0 -23 3 -27 10 -15 6
9 10 10 10 3 0 -6 -4 -14 -9 -18 -6 -3 -4 -20 5 -41 8 -20 14 -43 12 -52 -1
-10 1 -23 5 -29 5 -8 4 -13 -3 -13 -11 0 -9 -250 2 -295 3 -11 3 -14 1 -7 -11
30 -20 8 -12 -30 10 -52 10 -429 0 -553 -7 -78 -8 -68 -8 82 -1 146 -3 177
-18 199 -9 15 -25 28 -34 31 -14 4 -16 15 -10 91 4 48 13 188 21 312 7 124 14
210 16 192 2 -18 7 -30 11 -27 5 2 5 24 0 47 -4 24 -8 70 -9 104 0 47 3 61 15
61 9 0 15 -9 15 -21z m-1415 -758 c-11 -6 -26 -18 -32 -26 -7 -9 -13 -11 -13
-4 0 12 39 42 55 42 5 0 1 -6 -10 -12z m1402 -530 c-2 -24 -4 -5 -4 42 0 47 2
66 4 43 2 -24 2 -62 0 -85z m-1420 -235 c-3 -10 -5 -4 -5 12 0 17 2 24 5 18 2
-7 2 -21 0 -30z m1355 -242 c-4 -47 -5 -49 -43 -60 -21 -6 -55 -14 -76 -17
-21 -2 -85 -11 -143 -18 -95 -13 -228 -21 -289 -17 -18 1 -22 5 -18 20 3 11
-1 22 -9 25 -8 3 -13 2 -13 -2 1 -4 1 -73 0 -154 -1 -137 -2 -148 -20 -148
-24 0 -31 50 -31 218 0 107 -2 123 -14 113 -19 -16 -16 -244 3 -279 6 -12 9
-27 6 -32 -11 -17 -23 -1 -17 22 3 14 2 19 -6 14 -9 -5 -12 32 -12 143 l0 151
30 0 30 0 0 -90 c0 -57 4 -90 11 -90 6 0 10 19 9 48 -1 26 -1 65 -1 88 l1 41
158 7 c86 4 195 14 242 22 47 8 93 15 103 15 9 0 17 5 17 10 0 6 4 7 10 4 5
-3 18 -1 27 4 38 22 48 14 45 -38z m-737 -39 c-3 -3 -11 0 -18 7 -9 10 -8 11
6 5 10 -3 15 -9 12 -12z m36 -79 c1 -144 8 -224 20 -239 9 -11 7 -14 -8 -14
-18 0 -21 9 -27 77 -9 117 -7 273 4 273 6 0 10 -40 11 -97z m704 0 c-10 -80
-28 -106 -20 -30 3 38 2 56 -5 52 -5 -3 -10 -30 -10 -59 0 -64 -9 -116 -21
-116 -4 0 -6 15 -4 33 2 17 6 59 9 92 4 51 3 57 -8 43 -7 -10 -18 -18 -25 -18
-6 0 -11 -9 -11 -21 0 -11 4 -18 9 -14 5 3 12 1 16 -5 3 -5 -1 -10 -9 -10 -10
0 -16 -8 -15 -22 1 -17 2 -19 6 -5 2 9 8 17 13 17 4 0 6 -9 3 -20 -3 -11 -12
-20 -19 -20 -8 0 -14 -5 -14 -11 0 -6 7 -9 15 -5 8 3 15 1 15 -4 0 -6 -7 -10
-15 -10 -9 0 -15 -9 -15 -25 0 -20 -5 -25 -26 -25 -14 0 -23 4 -19 10 4 6 10
8 15 5 9 -5 16 35 23 134 4 45 2 52 -8 38 -7 -9 -17 -17 -24 -17 -6 0 -11 -4
-11 -10 0 -5 7 -7 15 -4 8 4 15 1 15 -5 0 -6 -8 -11 -17 -12 -15 0 -15 -2 2
-9 17 -7 17 -9 3 -9 -21 -1 -24 -17 -5 -24 7 -3 5 -6 -5 -6 -15 -1 -18 -11
-18 -57 0 -48 -2 -55 -17 -50 -9 4 -20 1 -25 -6 -6 -10 -8 -8 -8 5 0 9 6 17
14 17 8 0 16 15 20 38 7 44 7 153 -1 135 -2 -7 -11 -13 -18 -13 -8 0 -17 -5
-21 -12 -5 -8 -2 -9 9 -5 10 3 17 2 17 -3 0 -6 -8 -11 -17 -11 -17 -1 -17 -2
0 -6 9 -2 17 -9 17 -14 0 -5 -8 -9 -17 -10 -15 0 -15 -2 2 -9 17 -7 17 -9 3
-9 -10 -1 -18 -6 -18 -12 0 -6 7 -9 15 -5 8 3 15 1 15 -4 0 -6 -7 -10 -15 -10
-8 0 -15 -5 -15 -11 0 -6 7 -9 15 -5 9 3 15 0 15 -9 0 -9 -6 -12 -15 -9 -10 4
-15 0 -15 -14 0 -12 -5 -24 -12 -28 -8 -5 -9 19 -4 96 6 92 5 102 -8 91 -8 -7
-20 -10 -26 -6 -6 4 -10 -4 -10 -19 0 -17 6 -26 16 -26 8 0 12 -5 9 -10 -4 -6
-11 -8 -16 -5 -5 4 -9 -21 -9 -59 0 -37 -5 -68 -11 -72 -9 -5 -10 22 -7 101 4
89 3 105 -8 90 -7 -9 -17 -14 -23 -10 -7 4 -11 -4 -11 -19 0 -18 6 -26 18 -27
16 -1 16 -2 0 -6 -10 -2 -18 -9 -18 -14 0 -5 8 -10 18 -10 16 -1 16 -2 0 -6
-11 -3 -18 -14 -18 -29 0 -13 4 -23 9 -21 5 1 9 -2 9 -8 0 -5 -4 -9 -9 -8 -5
2 -9 -6 -9 -16 0 -11 -5 -23 -11 -26 -7 -5 -9 26 -7 98 2 81 0 103 -9 95 -7
-5 -17 -7 -23 -3 -6 4 -10 -6 -10 -25 0 -17 4 -29 9 -25 5 3 12 1 16 -5 3 -5
-3 -10 -15 -10 -12 0 -18 -5 -15 -10 4 -6 10 -8 15 -5 5 3 11 1 15 -5 3 -5 -3
-10 -15 -10 -12 0 -19 -4 -15 -10 3 -5 13 -6 22 -3 11 4 14 3 9 -5 -4 -7 -14
-12 -22 -12 -9 0 -14 -8 -13 -17 3 -34 -1 -63 -9 -63 -4 0 -6 48 -4 108 3 86
2 105 -9 95 -9 -9 -16 -10 -26 -2 -11 9 -13 -9 -13 -100 0 -74 -4 -111 -11
-111 -7 0 -10 28 -8 85 4 77 2 85 -14 85 -10 0 -16 4 -12 10 3 5 12 7 20 3 11
-3 15 2 15 17 0 19 -2 21 -16 9 -13 -10 -17 -10 -25 2 -5 9 -9 -27 -9 -98 0
-75 -4 -113 -11 -113 -7 0 -10 35 -7 109 2 86 0 107 -9 99 -9 -7 -15 -6 -19 6
-4 9 -5 18 -3 20 2 2 69 6 149 9 133 6 321 32 395 56 17 5 34 10 38 10 5 1 5
-25 2 -56z m-255 -53 c0 -5 -5 -10 -11 -10 -5 0 -7 5 -4 10 3 6 8 10 11 10 2
0 4 -4 4 -10z m-60 -10 c0 -5 -2 -10 -4 -10 -3 0 -8 5 -11 10 -3 6 -1 10 4 10
6 0 11 -4 11 -10z m-475 -10 c3 -5 2 -10 -4 -10 -5 0 -13 5 -16 10 -3 6 -2 10
4 10 5 0 13 -4 16 -10z m355 6 c0 -11 -19 -15 -25 -6 -3 5 1 10 9 10 9 0 16
-2 16 -4z m-355 -36 c3 -5 1 -10 -4 -10 -6 0 -11 5 -11 10 0 6 2 10 4 10 3 0
8 -4 11 -10z m285 0 c0 -5 -5 -10 -11 -10 -5 0 -7 5 -4 10 3 6 8 10 11 10 2 0
4 -4 4 -10z m65 -7 c-2 -27 -18 -31 -20 -5 -1 12 4 22 10 22 6 0 11 -8 10 -17z
m185 -3 c0 -5 -2 -10 -4 -10 -3 0 -8 5 -11 10 -3 6 -1 10 4 10 6 0 11 -4 11
-10z m120 0 c0 -5 -5 -10 -11 -10 -5 0 -7 5 -4 10 3 6 8 10 11 10 2 0 4 -4 4
-10z m-1080 -10 c0 -5 -2 -10 -4 -10 -3 0 -8 5 -11 10 -3 6 -1 10 4 10 6 0 11
-4 11 -10z m300 0 c0 -5 -4 -10 -10 -10 -5 0 -10 5 -10 10 0 6 5 10 10 10 6 0
10 -4 10 -10z m410 -10 c0 -5 -4 -10 -10 -10 -5 0 -10 5 -10 10 0 6 5 10 10
10 6 0 10 -4 10 -10z m-470 -10 c0 -5 -4 -10 -10 -10 -5 0 -10 5 -10 10 0 6 5
10 10 10 6 0 10 -4 10 -10z m655 0 c3 -5 1 -10 -4 -10 -6 0 -11 5 -11 10 0 6
2 10 4 10 3 0 8 -4 11 -10z m185 0 c0 -5 -4 -10 -10 -10 -5 0 -10 5 -10 10 0
6 5 10 10 10 6 0 10 -4 10 -10z m-960 -10 c0 -5 -4 -10 -10 -10 -5 0 -10 5
-10 10 0 6 5 10 10 10 6 0 10 -4 10 -10z m180 0 c0 -5 -2 -10 -4 -10 -3 0 -8
5 -11 10 -3 6 -1 10 4 10 6 0 11 -4 11 -10z m410 -10 c0 -5 -2 -10 -4 -10 -3
0 -8 5 -11 10 -3 6 -1 10 4 10 6 0 11 -4 11 -10z m62 -15 c-6 -32 -20 -32 -18
0 0 14 6 25 12 25 7 0 9 -10 6 -25z m188 11 c0 -3 -4 -8 -10 -11 -5 -3 -10 -1
-10 4 0 6 5 11 10 11 6 0 10 -2 10 -4z m225 -6 c-3 -5 -12 -10 -18 -10 -7 0
-6 4 3 10 19 12 23 12 15 0z m-821 -21 c-3 -5 -10 -7 -15 -3 -5 3 -7 10 -3 15
3 5 10 7 15 3 5 -3 7 -10 3 -15z m470 0 c-3 -5 -10 -7 -15 -3 -5 3 -7 10 -3
15 3 5 10 7 15 3 5 -3 7 -10 3 -15z m-409 1 c3 -5 1 -10 -4 -10 -6 0 -11 5
-11 10 0 6 2 10 4 10 3 0 8 -4 11 -10z m225 -6 c0 -8 -5 -12 -10 -9 -6 4 -8
11 -5 16 9 14 15 11 15 -7z m60 0 c0 -8 -4 -12 -10 -9 -5 3 -10 10 -10 16 0 5
5 9 10 9 6 0 10 -7 10 -16z m117 -36 c-3 -8 -6 -5 -6 6 -1 11 2 17 5 13 3 -3
4 -12 1 -19z"/>
<path d="M2601 2414 c0 -11 3 -14 6 -6 3 7 2 16 -1 19 -3 4 -6 -2 -5 -13z"/>
<path d="M2586 2208 c-5 -21 -5 -46 0 -55 6 -15 8 -13 12 10 2 15 2 39 0 55
-4 25 -5 24 -12 -10z"/>
<path d="M2582 2070 c0 -14 2 -19 5 -12 2 6 2 18 0 25 -3 6 -5 1 -5 -13z"/>
<path d="M2570 1959 c0 -5 5 -7 10 -4 6 3 10 8 10 11 0 2 -4 4 -10 4 -5 0 -10
-5 -10 -11z"/>
<path d="M2569 1882 c-3 -119 -2 -122 17 -122 8 0 12 4 9 10 -3 5 -7 43 -9 85
-3 92 -16 111 -17 27z"/>
<path d="M1923 479 c-1 -21 3 -39 8 -39 11 0 12 67 2 73 -5 3 -9 -13 -10 -34z"/>
<path d="M2596 3183 c-3 -21 -8 -92 -11 -158 -4 -66 -8 -145 -10 -175 -11
-144 -17 -304 -11 -299 7 6 23 195 31 349 7 149 15 259 20 287 3 12 1 24 -4
27 -5 4 -12 -11 -15 -31z"/>
<path d="M2622 3130 c0 -19 2 -27 5 -17 2 9 2 25 0 35 -3 9 -5 1 -5 -18z"/>
<path d="M2603 2800 c0 -25 2 -35 4 -22 2 12 2 32 0 45 -2 12 -4 2 -4 -23z"/>
<path d="M1202 2460 c0 -19 2 -27 5 -17 2 9 2 25 0 35 -3 9 -5 1 -5 -18z"/>
<path d="M2551 2454 c0 -11 3 -14 6 -6 3 7 2 16 -1 19 -3 4 -6 -2 -5 -13z"/>
<path d="M1202 2380 c0 -14 2 -19 5 -12 2 6 2 18 0 25 -3 6 -5 1 -5 -13z"/>
<path d="M2522 2380 c0 -14 2 -19 5 -12 2 6 2 18 0 25 -3 6 -5 1 -5 -13z"/>
<path d="M2518 2230 c-2 -21 2 -47 9 -56 10 -14 12 -8 11 39 -2 65 -14 76 -20
17z"/>
<path d="M2513 2111 c3 -28 2 -49 -3 -46 -4 3 -8 -12 -7 -33 1 -20 -1 -71 -3
-111 -2 -55 0 -76 9 -79 10 -3 12 13 7 77 -3 50 -2 81 4 81 14 0 13 147 -1
156 -8 4 -9 -9 -6 -45z"/>
<path d="M2910 1821 c0 -8 8 -23 17 -33 16 -17 15 -18 -8 -16 -19 2 -23 -1
-21 -16 2 -11 -1 -15 -7 -11 -9 5 -16 -8 -9 -17 1 -2 -3 -12 -9 -23 -6 -11
-23 -112 -38 -225 -41 -318 -65 -477 -86 -570 -38 -164 -38 -161 -26 -157 7 3
11 10 10 16 -2 6 1 11 6 11 22 0 85 311 106 525 4 39 9 78 11 89 2 10 6 39 9
64 5 46 20 103 36 134 5 11 4 18 -4 21 -7 2 4 9 23 15 l35 10 -32 1 c-36 1
-42 22 -8 31 24 7 30 60 7 60 -12 0 -12 3 4 14 19 14 39 3 28 -16 -3 -4 4 -8
14 -8 26 0 36 -27 14 -39 -16 -10 -15 -10 2 -11 11 0 16 -3 13 -7 -4 -3 0 -11
9 -17 18 -14 28 -76 12 -76 -13 0 -1 -14 13 -16 22 -3 23 -5 9 -14 -12 -8 -13
-11 -1 -19 11 -7 11 -9 0 -14 -12 -5 -12 -7 0 -15 7 -5 10 -15 7 -21 -10 -15
3 -53 15 -46 15 10 10 0 -11 -25 -22 -25 -26 -40 -11 -40 5 0 12 8 14 18 3 9
3 -23 0 -73 -6 -85 -18 -119 -35 -92 -4 6 -2 17 3 23 7 8 6 14 -1 19 -8 5 -8
11 1 21 10 12 9 13 -4 8 -11 -4 -17 2 -20 18 -4 21 -4 21 -6 -4 0 -15 4 -30 9
-33 8 -5 7 -11 0 -20 -7 -8 -9 -19 -6 -24 4 -5 2 -12 -2 -15 -5 -3 -9 -20 -10
-39 -1 -19 -7 -47 -13 -63 -7 -16 -13 -32 -14 -36 -2 -5 -3 -9 -4 -10 -6 -9
-7 -76 0 -73 4 3 5 -4 2 -15 -3 -10 -10 -18 -15 -17 -6 1 -12 -11 -13 -28 -5
-43 -12 -82 -18 -92 -2 -4 -1 -17 3 -27 5 -15 10 -5 22 40 9 32 28 92 42 132
14 41 23 79 19 85 -4 6 -1 7 7 2 10 -6 12 -3 8 13 -4 12 -2 20 3 16 5 -3 9 -1
9 4 0 6 -7 13 -16 16 -11 4 -13 10 -6 19 5 6 8 25 6 40 -2 19 1 27 9 24 7 -2
11 -14 9 -26 -3 -28 20 -23 24 5 2 10 10 57 19 104 29 149 -8 368 -82 486 -26
41 -31 46 -49 43 -4 0 -11 5 -15 13 -7 11 -9 10 -9 -1z m-13 -128 c-3 -10 -5
-4 -5 12 0 17 2 24 5 18 2 -7 2 -21 0 -30z m28 -3 c3 -5 1 -10 -4 -10 -6 0
-11 5 -11 10 0 6 2 10 4 10 3 0 8 -4 11 -10z"/>
<path d="M2493 1806 c4 -11 -4 -16 -31 -19 l-37 -4 41 -1 c30 -2 44 2 48 14 9
22 8 24 -10 24 -10 0 -14 -6 -11 -14z"/>
<path d="M804 1758 c-16 -29 -29 -57 -29 -63 0 -5 -3 -12 -6 -15 -11 -10 -39
-116 -50 -190 -19 -122 2 -283 52 -405 7 -17 13 -34 15 -40 2 -5 30 -89 63
-185 33 -96 69 -209 79 -250 16 -62 23 -76 43 -81 13 -4 19 -7 13 -8 -5 -1
-19 -8 -30 -17 -19 -15 -14 -15 31 2 16 6 18 5 8 -7 -7 -7 -13 -20 -12 -29 0
-10 4 -7 11 8 6 12 15 22 20 22 5 0 13 -10 18 -22 9 -23 9 -23 9 -2 1 12 8 25
17 28 8 3 12 2 9 -3 -3 -5 4 -16 16 -25 13 -9 19 -21 16 -30 -4 -10 -1 -13 8
-9 11 4 12 10 4 24 -5 11 -7 28 -4 39 8 25 -29 36 -69 21 -15 -6 -28 -11 -30
-11 -1 0 -2 9 -3 20 -2 18 1 19 20 8 19 -10 20 -9 10 4 -7 8 -10 18 -6 21 12
12 -7 7 -30 -8 -13 -8 -28 -11 -35 -6 -10 6 -8 10 10 15 18 6 20 9 8 14 -9 4
-15 19 -15 35 1 16 -2 30 -6 33 -4 2 -5 14 -2 27 4 18 3 19 -6 7 -9 -13 -11
-13 -11 3 0 9 7 17 15 17 8 0 15 5 15 11 0 6 -8 8 -19 4 -14 -4 -20 0 -24 21
-4 21 -1 25 13 21 13 -3 16 0 12 15 -4 15 -7 17 -13 6 -6 -9 -9 -7 -10 10 -1
12 -2 25 -4 30 -1 4 -5 24 -9 45 -5 20 -12 40 -17 43 -5 3 -9 14 -9 25 0 10
-4 19 -8 19 -4 0 -9 12 -10 28 -1 15 -6 28 -11 30 -5 2 -7 12 -4 22 4 16 0 20
-23 21 -25 2 -26 2 -6 6 16 3 22 9 18 20 -3 8 -6 26 -6 40 0 25 0 26 -20 8
-11 -10 -21 -16 -23 -14 -20 35 -25 49 -18 49 6 0 13 -5 16 -10 3 -5 11 -10
17 -10 6 0 4 8 -6 19 -10 11 -14 26 -10 37 5 15 4 16 -5 4 -14 -20 -20 -11
-22 38 -2 24 -9 48 -16 54 -17 13 -17 65 0 71 9 3 9 11 0 37 -7 19 -10 36 -6
39 3 3 8 0 10 -6 8 -21 19 -15 21 12 1 15 -4 28 -13 31 -8 4 -15 10 -15 16 0
5 5 6 10 3 6 -3 10 -1 10 4 0 6 -6 11 -12 12 -7 0 -2 5 11 12 20 10 23 16 18
54 -3 28 -1 43 7 43 6 0 3 7 -8 15 -18 13 -17 14 8 21 14 3 26 11 26 17 0 14
13 0 16 -17 1 -9 -6 -12 -20 -10 -18 4 -18 3 -3 -4 25 -11 25 -19 2 -36 -15
-12 -16 -15 -5 -16 24 0 41 15 35 32 -3 8 1 20 9 27 13 11 15 8 12 -23 -2 -19
3 -48 11 -63 19 -38 29 -93 53 -316 17 -155 58 -424 75 -487 2 -8 7 -36 11
-62 3 -27 10 -48 14 -48 3 0 11 -15 17 -33 8 -25 7 -36 -4 -46 -18 -17 -13
-22 16 -14 12 3 20 11 17 18 -2 7 1 18 7 24 6 6 7 11 1 11 -5 0 -10 32 -12 72
-2 39 -12 106 -22 147 -31 126 -58 285 -85 496 -48 379 -71 474 -117 483 -9 2
-26 -18 -44 -50z m30 -36 c3 -5 -1 -9 -9 -9 -8 0 -12 4 -9 9 3 4 7 8 9 8 2 0
6 -4 9 -8z m-54 -157 c0 -14 -4 -25 -9 -25 -4 0 -6 11 -3 25 2 14 6 25 8 25 2
0 4 -11 4 -25z m50 -474 c0 -10 -26 -9 -36 2 -4 4 2 7 14 7 12 0 22 -4 22 -9z
m90 -301 c0 -5 -5 -10 -11 -10 -5 0 -7 5 -4 10 3 6 8 10 11 10 2 0 4 -4 4 -10z"/>
<path d="M1708 1783 c6 -2 18 -2 25 0 6 3 1 5 -13 5 -14 0 -19 -2 -12 -5z"/>
<path d="M1988 1783 c6 -2 18 -2 25 0 6 3 1 5 -13 5 -14 0 -19 -2 -12 -5z"/>
<path d="M2078 1783 c6 -2 18 -2 25 0 6 3 1 5 -13 5 -14 0 -19 -2 -12 -5z"/>
<path d="M1358 1722 c-79 -5 -54 -22 33 -22 44 0 78 4 75 9 -8 12 -50 17 -108
13z"/>
<path d="M1255 1706 c-11 -7 -24 -13 -29 -12 -18 2 -25 -58 -21 -169 2 -60 6
-132 9 -160 3 -27 8 -84 11 -125 3 -41 8 -93 10 -115 3 -22 7 -69 9 -105 4
-72 29 -140 50 -140 7 0 19 -7 26 -15 7 -8 16 -13 20 -10 5 3 11 1 14 -4 9
-14 91 -29 191 -36 50 -3 107 -8 128 -11 23 -4 37 -2 37 5 0 6 -20 11 -47 12
-27 0 -57 2 -68 3 -11 2 -57 6 -102 10 -89 9 -193 49 -211 83 -11 21 -26 153
-47 418 -25 315 -22 344 38 370 18 8 25 14 17 15 -9 0 -24 -6 -35 -14z"/>
<path d="M2950 1706 c0 -2 7 -6 15 -10 8 -3 15 -1 15 4 0 6 -7 10 -15 10 -8 0
-15 -2 -15 -4z"/>
<path d="M1300 1665 c0 -8 2 -15 4 -15 2 0 6 7 10 15 3 8 1 15 -4 15 -6 0 -10
-7 -10 -15z"/>
<path d="M1342 1675 c3 -4 81 -7 173 -8 l168 -2 1 -67 1 -68 -35 -6 c-19 -4
-40 -9 -47 -13 -16 -9 647 -5 790 4 105 7 117 6 117 -8 0 -16 -40 -17 -471
-17 -274 0 -468 4 -465 9 3 5 -1 11 -9 15 -22 8 -18 26 5 26 11 0 20 5 20 10
0 6 -14 10 -31 10 -24 0 -29 -4 -25 -17 3 -10 8 -29 11 -43 l6 -25 484 -1 485
0 0 57 c0 33 -5 61 -12 65 -8 5 -9 -2 -5 -24 6 -30 5 -31 -36 -36 -187 -23
-333 -25 -365 -6 -12 6 19 10 103 10 124 1 236 9 245 17 2 2 -76 3 -175 2
l-180 -2 1 62 c1 33 -2 61 -7 61 -5 0 -9 -34 -9 -75 0 -65 -2 -75 -17 -75
-165 -5 -363 -3 -363 3 0 4 39 7 86 7 61 0 83 3 78 11 -5 8 -32 10 -85 6 l-79
-6 0 63 0 64 -182 2 c-100 0 -179 -2 -176 -5z"/>
<path d="M2110 1673 c0 -5 81 -7 180 -6 l180 2 0 -61 c0 -65 5 -73 13 -21 3
17 8 37 13 44 4 8 3 10 -4 5 -8 -5 -12 2 -12 18 l0 26 -185 0 c-102 0 -185 -3
-185 -7z"/>
<path d="M1880 1611 c0 -82 17 -86 19 -6 1 39 -2 65 -9 65 -6 0 -10 -25 -10
-59z"/>
<path d="M2011 1657 c-1 -10 -5 -16 -10 -12 -5 3 -13 1 -16 -5 -4 -6 -3 -10 2
-9 4 1 21 -3 37 -10 16 -6 31 -9 34 -7 3 3 -3 9 -12 12 -10 4 -22 16 -26 28
-7 18 -9 18 -9 3z"/>
<path d="M1260 1643 c0 -5 9 -14 19 -20 11 -7 21 -27 24 -45 3 -25 4 -21 5 16
1 27 -1 46 -4 43 -4 -3 -15 -2 -25 4 -11 5 -19 6 -19 2z"/>
<path d="M1335 1639 c-10 -16 -3 -19 61 -24 39 -3 61 0 66 8 6 9 8 9 8 0 0 -7
5 -13 10 -13 6 0 10 7 10 15 0 8 5 15 10 15 6 0 10 -6 10 -12 0 -9 18 -13 55
-14 30 0 49 3 42 8 -8 5 -7 8 6 8 9 0 17 -4 17 -10 0 -5 7 -10 17 -10 9 0 13
3 10 7 -4 3 -2 12 4 20 10 11 -17 13 -154 13 -107 0 -168 -4 -172 -11z"/>
<path d="M2110 1643 c0 -5 5 -15 11 -23 8 -11 12 -12 16 -2 2 6 9 12 14 12 6
0 7 -4 4 -10 -3 -5 0 -10 9 -10 8 0 17 6 19 13 4 10 6 10 6 0 1 -9 21 -13 67
-13 41 0 63 4 59 10 -4 6 4 5 19 -1 20 -9 29 -9 41 1 11 9 15 9 15 1 0 -20 54
-9 58 12 3 16 -10 17 -167 17 -94 0 -171 -3 -171 -7z"/>
<path d="M1736 1625 c-18 -13 -18 -14 3 -12 11 1 23 7 25 14 7 17 -4 16 -28
-2z"/>
<path d="M2990 1630 c0 -5 5 -10 11 -10 5 0 7 5 4 10 -3 6 -8 10 -11 10 -2 0
-4 -4 -4 -10z"/>
<path d="M1256 1584 c-10 -25 -7 -34 9 -28 8 4 15 15 15 25 0 23 -16 25 -24 3z"/>
<path d="M821 1554 c0 -11 3 -14 6 -6 3 7 2 16 -1 19 -3 4 -6 -2 -5 -13z"/>
<path d="M1432 1555 c3 -3 24 -8 48 -11 30 -4 40 -3 36 5 -4 6 -26 11 -48 11
-23 0 -39 -2 -36 -5z"/>
<path d="M1605 1550 c-4 -6 6 -10 24 -10 16 0 33 5 36 10 4 6 -6 10 -24 10
-16 0 -33 -4 -36 -10z"/>
<path d="M1920 1550 c0 -6 32 -10 78 -9 49 0 70 3 57 8 -29 12 -135 13 -135 1z"/>
<path d="M793 1522 c-8 -13 -7 -26 2 -47 l12 -30 7 32 c4 18 4 39 -1 47 -7 13
-10 13 -20 -2z m17 -18 c0 -8 -5 -12 -10 -9 -6 4 -8 11 -5 16 9 14 15 11 15
-7z"/>
<path d="M1250 1503 l0 -35 105 5 c138 6 149 18 14 15 -87 -3 -104 -1 -104 12
0 12 16 15 90 14 50 0 108 -3 130 -7 26 -4 35 -3 25 3 -16 10 -70 17 -187 24
l-73 5 0 -36z"/>
<path d="M2990 1495 c-8 -29 -6 -55 2 -47 5 5 8 20 5 33 -2 13 -5 20 -7 14z"/>
<path d="M1487 1479 c8 -8 16 -8 30 0 16 9 14 10 -11 11 -22 0 -27 -3 -19 -11z"/>
<path d="M1566 1435 c4 -11 9 -32 12 -47 3 -18 10 -28 21 -27 10 0 11 2 4 6
-7 2 -13 15 -13 27 0 12 -7 31 -16 42 -15 19 -16 19 -8 -1z"/>
<path d="M790 1425 c0 -8 -6 -15 -12 -15 -10 0 -9 -3 1 -9 7 -5 11 -13 7 -19
-3 -6 -2 -13 4 -17 11 -7 9 -125 -2 -125 -5 0 -8 -5 -8 -11 0 -6 7 -9 15 -5
12 4 15 -3 15 -29 0 -19 4 -35 10 -35 5 0 7 15 4 33 -4 17 -8 80 -11 140 -3
59 -9 107 -14 107 -5 0 -9 -7 -9 -15z"/>
<path d="M1646 1423 c-6 -14 -5 -15 5 -6 7 7 10 15 7 18 -3 3 -9 -2 -12 -12z"/>
<path d="M3010 1424 c0 -8 -4 -12 -10 -9 -5 3 -10 1 -10 -4 0 -6 4 -11 9 -11
6 0 7 -17 4 -37 -3 -21 -3 -35 1 -32 11 10 24 109 15 109 -5 0 -9 -7 -9 -16z"/>
<path d="M2120 1396 c0 -2 8 -10 18 -17 15 -13 16 -12 3 4 -13 16 -21 21 -21
13z"/>
<path d="M1596 1341 c-3 -4 1 -28 9 -52 l15 -44 -6 40 c-4 22 -7 46 -7 53 0
14 -4 15 -11 3z"/>
<path d="M750 1330 c0 -5 5 -10 10 -10 6 0 10 5 10 10 0 6 -4 10 -10 10 -5 0
-10 -4 -10 -10z"/>
<path d="M2437 1251 c-4 -17 -3 -21 5 -13 5 5 8 16 6 23 -3 8 -7 3 -11 -10z"/>
<path d="M1875 1240 c-3 -5 -1 -10 4 -10 6 0 11 5 11 10 0 6 -2 10 -4 10 -3 0
-8 -4 -11 -10z"/>
<path d="M1620 1231 c0 -6 5 -11 11 -11 5 0 8 -4 5 -9 -9 -13 5 -71 16 -71 6
0 7 8 3 18 -4 9 -7 27 -7 38 1 12 -5 27 -13 34 -11 9 -15 9 -15 1z"/>
<path d="M2150 1233 c0 -6 8 -17 18 -24 16 -13 16 -13 2 6 -8 11 -16 22 -17
24 -2 2 -3 0 -3 -6z"/>
<path d="M2080 1181 c0 -6 4 -13 10 -16 6 -3 7 1 4 9 -7 18 -14 21 -14 7z"/>
<path d="M1443 1148 c3 -18 18 -28 45 -28 15 0 22 6 22 20 0 16 -7 20 -35 20
-23 0 -34 -4 -32 -12z"/>
<path d="M2277 1146 c-4 -9 -1 -17 6 -17 7 -1 25 -3 40 -5 22 -2 28 1 25 14
-4 23 -63 29 -71 8z"/>
<path d="M1785 1139 c-4 -6 -5 -12 -2 -15 2 -3 7 2 10 11 7 17 1 20 -8 4z"/>
<path d="M1646 1115 c4 -8 8 -15 10 -15 2 0 4 7 4 15 0 8 -4 15 -10 15 -5 0
-7 -7 -4 -15z"/>
<path d="M1433 1076 c-2 -27 1 -35 18 -39 12 -3 31 -2 42 3 18 7 15 9 -17 9
-30 1 -37 4 -32 17 3 9 6 18 6 20 0 2 9 4 20 4 11 0 20 -4 20 -10 0 -5 5 -10
10 -10 6 0 10 9 10 20 0 16 -7 20 -37 20 -36 0 -38 -2 -40 -34z"/>
<path d="M2276 1096 c4 -9 1 -16 -6 -16 -8 0 -9 -6 -5 -17 4 -10 8 -23 8 -28
1 -15 64 -6 78 11 9 11 8 18 -2 31 -8 9 -12 19 -9 22 3 3 -12 7 -32 9 -31 3
-37 0 -32 -12z m59 -20 c18 -17 9 -26 -27 -26 -30 0 -31 1 -22 24 8 20 31 21
49 2z"/>
<path d="M1665 1069 c10 -32 21 -43 21 -20 0 10 -7 24 -14 31 -12 11 -13 9 -7
-11z"/>
<path d="M1281 1064 c0 -11 3 -14 6 -6 3 7 2 16 -1 19 -3 4 -6 -2 -5 -13z"/>
<path d="M1684 991 c9 -16 13 -31 11 -33 -3 -3 2 -5 10 -5 19 0 19 5 -1 24 -8
9 -13 22 -10 29 3 8 -1 14 -10 14 -13 0 -13 -3 0 -29z"/>
<path d="M2191 1004 c0 -11 3 -14 6 -6 3 7 2 16 -1 19 -3 4 -6 -2 -5 -13z"/>
<path d="M2355 980 c3 -5 11 -10 16 -10 6 0 7 5 4 10 -3 6 -11 10 -16 10 -6 0
-7 -4 -4 -10z"/>
<path d="M1290 958 c0 -8 8 -14 18 -15 9 0 55 -4 102 -8 47 -4 82 -4 78 0 -4
4 -28 8 -55 10 -46 3 -88 10 -125 21 -11 3 -18 0 -18 -8z"/>
<path d="M2323 954 c4 -7 0 -14 -7 -17 -8 -3 -16 -1 -18 4 -4 13 -38 1 -38
-13 0 -6 13 -8 33 -4 17 4 40 7 51 7 10 0 17 1 15 2 -2 2 -13 9 -23 17 -11 8
-17 10 -13 4z"/>
<path d="M2420 950 c-11 -7 -4 -9 27 -8 22 2 39 6 36 11 -6 10 -45 8 -63 -3z"/>
<path d="M2564 920 c5 -56 12 -58 15 -5 1 26 -2 45 -9 45 -6 0 -8 -17 -6 -40z"/>
<path d="M2370 942 c0 -5 7 -9 15 -9 8 0 15 4 15 9 0 4 -7 8 -15 8 -8 0 -15
-4 -15 -8z"/>
<path d="M1500 929 c0 -5 9 -9 20 -9 11 0 20 2 20 4 0 2 -9 6 -20 9 -11 3 -20
1 -20 -4z"/>
<path d="M1701 928 c-1 -22 11 -29 29 -17 13 7 12 9 -2 9 -9 0 -19 6 -21 13
-3 7 -6 6 -6 -5z"/>
<path d="M2226 930 c-11 -3 -15 -9 -10 -13 10 -6 42 9 34 16 -3 3 -14 1 -24
-3z"/>
<path d="M1578 923 c7 -3 16 -2 19 1 4 3 -2 6 -13 5 -11 0 -14 -3 -6 -6z"/>
<path d="M1614 919 c-3 -5 9 -9 25 -9 17 0 31 2 31 4 0 8 -51 13 -56 5z"/>
<path d="M2120 920 l-25 -8 28 -1 c15 -1 27 4 27 9 0 6 -1 10 -2 9 -2 -1 -14
-5 -28 -9z"/>
<path d="M1895 910 c-16 -7 -12 -9 18 -9 23 -1 36 3 32 9 -7 12 -23 12 -50 0z"/>
<path d="M1990 910 c0 -5 5 -10 10 -10 6 0 10 5 10 10 0 6 -4 10 -10 10 -5 0
-10 -4 -10 -10z"/>
<path d="M1518 873 c7 -3 16 -2 19 1 4 3 -2 6 -13 5 -11 0 -14 -3 -6 -6z"/>
<path d="M2211 864 c0 -11 3 -14 6 -6 3 7 2 16 -1 19 -3 4 -6 -2 -5 -13z"/>
<path d="M1720 861 c0 -6 5 -13 10 -16 6 -3 10 1 10 9 0 9 -4 16 -10 16 -5 0
-10 -4 -10 -9z"/>
<path d="M2030 861 c0 -10 19 -25 25 -20 1 2 -3 10 -11 17 -8 7 -14 8 -14 3z"/>
<path d="M2110 860 c0 -4 7 -7 15 -6 23 3 26 12 5 13 -11 1 -20 -2 -20 -7z"/>
<path d="M1870 850 c0 -5 5 -10 11 -10 5 0 7 5 4 10 -3 6 -8 10 -11 10 -2 0
-4 -4 -4 -10z"/>
<path d="M2250 790 c-11 -7 -5 -9 22 -7 21 1 38 5 38 10 0 10 -42 8 -60 -3z"/>
<path d="M2850 700 c0 -5 5 -10 11 -10 5 0 7 5 4 10 -3 6 -8 10 -11 10 -2 0
-4 -4 -4 -10z"/>
<path d="M1306 681 c-3 -5 3 -11 15 -14 16 -4 18 -3 8 9 -13 16 -16 17 -23 5z"/>
<path d="M981 664 c0 -12 7 -28 17 -35 15 -12 16 -12 6 1 -7 8 -14 24 -17 35
-4 19 -5 19 -6 -1z"/>
<path d="M1350 670 c0 -9 89 -24 96 -17 3 2 -18 9 -46 14 -27 6 -50 7 -50 3z"/>
<path d="M1488 643 c7 -3 16 -2 19 1 4 3 -2 6 -13 5 -11 0 -14 -3 -6 -6z"/>
<path d="M2817 626 c-6 -15 11 -36 28 -36 5 0 2 5 -8 11 -14 8 -16 14 -6 25 7
8 7 14 1 14 -5 0 -12 -6 -15 -14z"/>
<path d="M2705 603 c3 -3 0 -12 -6 -20 -9 -10 -8 -13 4 -13 15 0 18 24 4 35
-4 3 -5 2 -2 -2z"/>
<path d="M1232 570 c0 -14 2 -19 5 -12 2 6 2 18 0 25 -3 6 -5 1 -5 -13z"/>
<path d="M2806 573 c-4 -9 -2 -21 4 -27 7 -7 10 -2 10 17 0 31 -5 34 -14 10z"/>
<path d="M2703 512 c-6 -4 6 -8 29 -8 26 -1 35 2 27 7 -17 11 -40 11 -56 1z"/>
<path d="M2576 463 c-13 -109 -18 -202 -11 -213 5 -8 12 -5 22 9 8 12 19 19
24 16 5 -4 9 -1 9 5 0 7 -7 9 -16 6 -15 -6 -16 5 -11 104 5 111 -6 161 -17 73z"/>
<path d="M2771 443 c2 -31 3 -33 6 -10 2 15 9 27 14 27 5 0 9 5 9 10 0 6 -7
10 -15 10 -11 0 -15 -10 -14 -37z"/>
<path d="M1001 444 c0 -7 6 -25 14 -40 14 -27 15 -27 15 -6 0 12 -4 22 -9 22
-5 0 -12 8 -14 18 -3 9 -5 12 -6 6z"/>
<path d="M1100 410 c0 -5 5 -10 10 -10 6 0 10 -7 10 -17 0 -9 3 -14 6 -10 8 8
-5 47 -17 47 -5 0 -9 -4 -9 -10z"/>
<path d="M2450 400 c-9 -6 -10 -10 -3 -10 6 0 15 5 18 10 8 12 4 12 -15 0z"/>
<path d="M2723 373 c-7 -17 -22 -39 -36 -47 -13 -9 -29 -28 -35 -41 -11 -23
-10 -25 6 -16 27 15 106 99 108 116 2 12 -1 13 -11 5 -10 -8 -14 -8 -17 2 -3
7 -9 -2 -15 -19z"/>
<path d="M1037 376 c-9 -24 105 -121 188 -161 163 -79 425 -120 703 -112 307
10 416 26 582 88 17 6 30 18 30 25 0 10 -5 12 -17 5 -101 -51 -297 -94 -396
-86 -44 4 -56 3 -42 -4 23 -12 -384 -9 -475 3 -75 10 -104 14 -110 16 -3 1 -9
2 -14 1 -8 -2 -109 25 -136 36 -8 3 -18 7 -23 7 -26 3 -136 63 -132 73 2 6 -3
19 -11 30 -14 17 -14 16 -4 -4 19 -39 -11 -27 -74 28 -42 38 -54 54 -44 60 10
7 9 9 -3 9 -9 0 -19 -6 -22 -14z"/>
<path d="M2158 363 c7 -3 16 -2 19 1 4 3 -2 6 -13 5 -11 0 -14 -3 -6 -6z"/>
<path d="M1140 351 c0 -5 7 -14 15 -21 16 -14 18 -10 9 14 -6 17 -24 22 -24 7z"/>
<path d="M1678 353 c6 -2 18 -2 25 0 6 3 1 5 -13 5 -14 0 -19 -2 -12 -5z"/>
<path d="M2063 353 c9 -2 23 -2 30 0 6 3 -1 5 -18 5 -16 0 -22 -2 -12 -5z"/>
<path d="M1793 343 c15 -2 37 -2 50 0 12 2 0 4 -28 4 -27 0 -38 -2 -22 -4z"/>
<path d="M2512 315 c0 -16 2 -22 5 -12 2 9 2 23 0 30 -3 6 -5 -1 -5 -18z"/>
<path d="M710 4865 c-12 -14 -15 -49 -15 -164 0 -122 3 -152 19 -183 27 -56
46 -50 44 15 -2 36 -7 54 -18 59 -13 5 -12 7 3 7 9 1 17 5 17 10 0 5 -8 12
-17 14 -13 3 -10 5 7 6 25 2 25 2 3 11 -27 11 -30 30 -5 30 12 0 14 2 4 8 -7
5 -10 16 -6 25 3 9 2 17 -4 17 -5 0 -12 11 -14 25 -3 13 -1 22 3 19 5 -3 9 1
9 10 0 8 -6 17 -12 20 -7 4 -2 4 10 2 22 -4 23 -3 8 13 -12 13 -13 20 -4 29 9
9 9 12 1 12 -6 0 -13 7 -15 17 -3 15 -4 14 -18 -2z"/>
<path d="M1070 5290 c-6 -11 -8 -20 -6 -20 3 0 10 9 16 20 6 11 8 20 6 20 -3
0 -10 -9 -16 -20z"/>
<path d="M957 3168 c7 -44 14 -50 11 -9 -1 18 -5 34 -9 37 -4 2 -5 -11 -2 -28z"/>
<path d="M981 3104 c0 -11 3 -14 6 -6 3 7 2 16 -1 19 -3 4 -6 -2 -5 -13z"/>
<path d="M962 3060 c0 -14 2 -19 5 -12 2 6 2 18 0 25 -3 6 -5 1 -5 -13z"/>
<path d="M982 3060 c0 -14 2 -19 5 -12 2 6 2 18 0 25 -3 6 -5 1 -5 -13z"/>
<path d="M960 3008 c0 -4 4 -8 9 -8 5 0 8 -65 7 -147 -2 -82 2 -164 7 -183 6
-19 10 -38 9 -42 -1 -5 3 -8 8 -8 13 0 13 12 -1 47 -6 16 -11 97 -11 189 0
132 -2 161 -14 161 -8 0 -14 -4 -14 -9z"/>
<path d="M992 2560 c0 -19 2 -27 5 -17 2 9 2 25 0 35 -3 9 -5 1 -5 -18z"/>
<path d="M994 2505 c-4 -9 -8 -29 -9 -44 -3 -45 -4 -48 -32 -61 -16 -7 -23
-15 -15 -17 6 -3 9 -10 6 -16 -4 -7 7 2 23 20 21 21 33 46 38 78 7 48 1 71
-11 40z"/>
<path d="M1030 2390 c20 -13 33 -13 25 0 -3 6 -14 10 -23 10 -15 0 -15 -2 -2
-10z"/>
<path d="M967 2353 c-10 -9 -9 -23 1 -23 5 0 9 7 9 15 0 17 -1 18 -10 8z"/>
<path d="M1053 2315 c0 -27 2 -38 4 -22 2 15 2 37 0 50 -2 12 -4 0 -4 -28z"/>
<path d="M987 2323 c-4 -3 2 -13 14 -21 26 -18 32 -12 9 10 -9 10 -20 15 -23
11z"/>
<path d="M968 2118 c17 -21 72 -50 72 -38 0 10 -58 50 -74 50 -5 0 -4 -6 2
-12z"/>
<path d="M1053 1910 c0 -30 2 -43 4 -27 2 15 2 39 0 55 -2 15 -4 2 -4 -28z"/>
<path d="M2898 3630 c-3 -16 -1 -30 4 -30 4 0 8 14 8 30 0 17 -2 30 -4 30 -2
0 -6 -13 -8 -30z"/>
<path d="M2815 3221 c-3 -5 -2 -12 3 -15 5 -3 9 1 9 9 0 17 -3 19 -12 6z"/>
<path d="M2780 3141 c0 -11 5 -23 10 -26 6 -4 10 5 10 19 0 14 -4 26 -10 26
-5 0 -10 -9 -10 -19z"/>
<path d="M2798 2882 c-3 -119 -8 -226 -13 -236 -6 -13 -5 -17 2 -13 6 4 13 1
16 -5 2 -7 5 68 6 167 1 99 4 206 7 237 2 31 0 59 -5 62 -5 3 -11 -87 -13
-212z"/>
<path d="M2746 2765 c3 -65 7 -121 9 -124 8 -7 4 140 -5 194 -6 35 -7 15 -4
-70z"/>
<path d="M2790 2600 c0 -5 5 -10 11 -10 5 0 7 5 4 10 -3 6 -8 10 -11 10 -2 0
-4 -4 -4 -10z"/>
<path d="M2791 2554 c0 -11 3 -14 6 -6 3 7 2 16 -1 19 -3 4 -6 -2 -5 -13z"/>
<path d="M2787 2507 c-8 -22 2 -95 14 -103 19 -11 7 -40 -33 -81 -23 -23 -39
-45 -35 -49 10 -10 78 65 87 96 5 17 4 32 -2 38 -5 5 -13 34 -17 63 -4 38 -9
48 -14 36z"/>
<path d="M2760 2411 c0 -6 -3 -10 -7 -10 -20 3 -34 -2 -28 -11 3 -5 1 -10 -4
-10 -6 0 -11 -8 -11 -17 0 -14 3 -13 16 5 8 12 21 22 29 22 18 0 28 17 15 25
-5 3 -10 1 -10 -4z"/>
<path d="M2831 2184 c0 -11 3 -14 6 -6 3 7 2 16 -1 19 -3 4 -6 -2 -5 -13z"/>
<path d="M2767 2111 c-38 -25 -43 -31 -24 -31 9 0 29 11 44 25 32 28 21 32
-20 6z"/>
<path d="M2713 1995 c0 -27 2 -38 4 -22 2 15 2 37 0 50 -2 12 -4 0 -4 -28z"/>
<path d="M2730 1360 c19 -13 30 -13 30 0 0 6 -10 10 -22 10 -19 0 -20 -2 -8
-10z"/>
<path d="M3156 3401 c-19 -7 -18 -8 4 -14 13 -3 26 -4 29 -2 2 3 -1 5 -8 5 -7
0 -9 5 -6 10 7 11 7 11 -19 1z"/>
<path d="M2950 2296 c0 -7 9 -16 20 -19 11 -3 20 -4 20 -3 0 1 -9 9 -20 19
-15 13 -20 14 -20 3z"/>
<path d="M2957 2259 c7 -7 15 -10 18 -7 3 3 -2 9 -12 12 -14 6 -15 5 -6 -5z"/>
<path d="M810 1909 c0 -5 -4 -7 -10 -4 -5 3 -10 -3 -10 -14 0 -25 4 -26 24 -5
18 18 21 34 6 34 -5 0 -10 -5 -10 -11z"/>
<path d="M2832 392 l-23 -37 26 28 c14 15 25 32 25 38 0 14 -3 11 -28 -29z"/>
</g>
</svg>
